<svg xmlns="http://www.w3.org/2000/svg" width="256" height="192" viewBox="0 0 256 192" role="img"><title>Playcast monogram</title><path d="M88,26H168A26,26 0 0 1 194,52V140A26,26 0 0 1 168,166H88A26,26 0 0 1 62,140V52A26,26 0 0 1 88,26Z" fill="none" stroke="#fff" stroke-width="6" stroke-linecap="round" stroke-linejoin="round"/><path d="M104,138V56H132A22,22 0 0 1 132,100H104" fill="none" stroke="#fff" stroke-width="12" stroke-linecap="round" stroke-linejoin="round"/><path d="M174,38L176.8,45.2L184,48L176.8,50.8L174,58L171.2,50.8L164,48L171.2,45.2Z" fill="#fff"/></svg>