<svg xmlns="http://www.w3.org/2000/svg" viewBox="0 0 240 240" width="240" height="240">
<title>Voracious — corner A</title>
<defs><filter id="voracious-corner-a-glow" filterUnits="userSpaceOnUse" x="-12" y="-12" width="264" height="264" color-interpolation-filters="sRGB"><feGaussianBlur stdDeviation="1.8"/></filter></defs>
<g><polygon points="35.72,29.84 89.4,52.08 88.92,56.75 34,34" fill="#b8a9d4"/><polygon points="34,34 88.92,56.75 85.96,60.39 32.28,38.16" fill="#3a0f60"/><polygon points="89.4,52.08 113.45,66.91 88.92,56.75" fill="#f1dcff"/><polygon points="88.92,56.75 113.45,66.91 85.96,60.39" fill="#4a1379"/><path d="M35.72 29.84L89.4 52.08L113.45 66.91L85.96 60.39L32.28 38.16Z" fill="none" stroke="#1c1428" stroke-width="0.7" stroke-linejoin="miter" stroke-miterlimit="12"/><polygon points="38.16,32.28 60.39,85.96 56.75,88.92 34,34" fill="#b8a9d4"/><polygon points="34,34 56.75,88.92 52.08,89.4 29.84,35.72" fill="#3a0f60"/><polygon points="60.39,85.96 66.91,113.45 56.75,88.92" fill="#f1dcff"/><polygon points="56.75,88.92 66.91,113.45 52.08,89.4" fill="#4a1379"/><path d="M38.16 32.28L60.39 85.96L66.91 113.45L52.08 89.4L29.84 35.72Z" fill="none" stroke="#1c1428" stroke-width="0.7" stroke-linejoin="miter" stroke-miterlimit="12"/><polygon points="39.3,28.7 83.5,72.89 79.79,79.79 34,34" fill="#b8a9d4"/><polygon points="37.54,37.54 57.72,47.4 61.4,61.4" fill="#f1dcff"/><polygon points="58.31,58.31 78.94,68.61 79.79,79.79" fill="#b62af0" opacity="0.55"/><polygon points="34,34 79.79,79.79 72.89,83.5 28.7,39.3" fill="#3a0f60"/><polygon points="42.84,42.84 64.94,64.94 50.79,61.4" fill="#4a1379"/><polygon points="83.5,72.89 113.2,113.2 79.79,79.79" fill="#f1dcff"/><polygon points="79.79,79.79 113.2,113.2 72.89,83.5" fill="#4a1379"/><polyline points="39.09,29.62 82.58,73.1" fill="none" stroke="#fff0fa" stroke-width="1.1" opacity="0.9"/><polyline points="34,34 79.79,79.79" fill="none" stroke="#fff0fa" stroke-width="0.6" opacity="0.55"/><path d="M39.3 28.7L83.5 72.89L113.2 113.2L72.89 83.5L28.7 39.3Z" fill="none" stroke="#1c1428" stroke-width="0.8" stroke-linejoin="miter" stroke-miterlimit="12"/><polygon points="28,8 100,8 106.75,3.5 109,8 114,8 120,4.4 122,8 126,8 131.25,5.3 133,8 196.2,8 191.65,13.2 28,13.2" fill="#b8a9d4"/><polygon points="41.46,13.2 98.64,8.2 132.28,13.2" fill="#f1dcff"/><polygon points="120.51,13.2 179.38,8.2 191.65,13.2" fill="#b62af0" opacity="0.55"/><polygon points="28,13.2 191.65,13.2 183.2,21 28,21" fill="#3a0f60"/><polygon points="61.64,13.2 145.74,13.2 112.1,21" fill="#4a1379"/><polygon points="196.2,8 230,13.2 191.65,13.2" fill="#f1dcff"/><polygon points="191.65,13.2 230,13.2 183.2,21" fill="#4a1379"/><polyline points="28.5,8.8 99.5,8.8" fill="none" stroke="#fff0fa" stroke-width="1.1" opacity="0.9"/><polyline points="109.5,8.8 113.5,8.8" fill="none" stroke="#fff0fa" stroke-width="1.1" opacity="0.9"/><polyline points="133.5,8.8 195.7,8.8" fill="none" stroke="#fff0fa" stroke-width="1.1" opacity="0.9"/><polyline points="28,13.2 191.65,13.2" fill="none" stroke="#fff0fa" stroke-width="0.6" opacity="0.55"/><path d="M28 8L100 8L106.75 3.5L109 8L114 8L120 4.4L122 8L126 8L131.25 5.3L133 8L196.2 8L230 13.2L183.2 21L28 21Z" fill="none" stroke="#1c1428" stroke-width="0.8" stroke-linejoin="miter" stroke-miterlimit="12"/><polygon points="8,28 8,100 3.5,106.75 8,109 8,114 4.4,120 8,122 8,126 5.3,131.25 8,133 8,196.2 13.2,191.65 13.2,28" fill="#b8a9d4"/><polygon points="13.2,41.46 8.2,98.64 13.2,132.28" fill="#f1dcff"/><polygon points="13.2,120.51 8.2,179.38 13.2,191.65" fill="#b62af0" opacity="0.55"/><polygon points="13.2,28 13.2,191.65 21,183.2 21,28" fill="#3a0f60"/><polygon points="13.2,61.64 13.2,145.74 21,112.1" fill="#4a1379"/><polygon points="8,196.2 13.2,230 13.2,191.65" fill="#f1dcff"/><polygon points="13.2,191.65 13.2,230 21,183.2" fill="#4a1379"/><polyline points="8.8,28.5 8.8,99.5" fill="none" stroke="#fff0fa" stroke-width="1.1" opacity="0.9"/><polyline points="8.8,109.5 8.8,113.5" fill="none" stroke="#fff0fa" stroke-width="1.1" opacity="0.9"/><polyline points="8.8,133.5 8.8,195.7" fill="none" stroke="#fff0fa" stroke-width="1.1" opacity="0.9"/><polyline points="13.2,28 13.2,191.65" fill="none" stroke="#fff0fa" stroke-width="0.6" opacity="0.55"/><path d="M8 28L8 100L3.5 106.75L8 109L8 114L4.4 120L8 122L8 126L5.3 131.25L8 133L8 196.2L13.2 230L21 183.2L21 28Z" fill="none" stroke="#1c1428" stroke-width="0.8" stroke-linejoin="miter" stroke-miterlimit="12"/><polyline points="64,30 214,30" fill="none" stroke="#b8a9d4" stroke-width="0.9" opacity="0.85"/><polygon points="68,30.4 72,30.4 69.4,36.5" fill="#b62af0"/><polygon points="76,30.4 80,30.4 77.4,34" fill="#b8a9d4"/><polygon points="84,30.4 88,30.4 85.4,36.5" fill="#b62af0"/><polygon points="92,30.4 96,30.4 93.4,34" fill="#b8a9d4"/><polygon points="100,30.4 104,30.4 101.4,36.5" fill="#b62af0"/><polygon points="108,30.4 112,30.4 109.4,34" fill="#b8a9d4"/><polygon points="116,30.4 120,30.4 117.4,36.5" fill="#b62af0"/><polygon points="124,30.4 128,30.4 125.4,34" fill="#b8a9d4"/><polygon points="132,30.4 136,30.4 133.4,36.5" fill="#b62af0"/><polygon points="140,30.4 144,30.4 141.4,34" fill="#b8a9d4"/><polygon points="148,30.4 152,30.4 149.4,36.5" fill="#b62af0"/><path d="M152 30L152 34.5M158 30L158 32.5M164 30L164 32.5M170 30L170 32.5M176 30L176 34.5M182 30L182 32.5M188 30L188 32.5M194 30L194 32.5M200 30L200 34.5" stroke="#b8a9d4" stroke-width="0.8" opacity="0.85"/><polyline points="30,64 30,214" fill="none" stroke="#b8a9d4" stroke-width="0.9" opacity="0.85"/><polygon points="30.4,68 30.4,72 36.5,69.4" fill="#b62af0"/><polygon points="30.4,76 30.4,80 34,77.4" fill="#b8a9d4"/><polygon points="30.4,84 30.4,88 36.5,85.4" fill="#b62af0"/><polygon points="30.4,92 30.4,96 34,93.4" fill="#b8a9d4"/><polygon points="30.4,100 30.4,104 36.5,101.4" fill="#b62af0"/><polygon points="30.4,108 30.4,112 34,109.4" fill="#b8a9d4"/><polygon points="30.4,116 30.4,120 36.5,117.4" fill="#b62af0"/><polygon points="30.4,124 30.4,128 34,125.4" fill="#b8a9d4"/><polygon points="30.4,132 30.4,136 36.5,133.4" fill="#b62af0"/><polygon points="30.4,140 30.4,144 34,141.4" fill="#b8a9d4"/><polygon points="30.4,148 30.4,152 36.5,149.4" fill="#b62af0"/><path d="M30 152L34.5 152M30 158L32.5 158M30 164L32.5 164M30 170L32.5 170M30 176L34.5 176M30 182L32.5 182M30 188L32.5 188M30 194L32.5 194M30 200L34.5 200" stroke="#b8a9d4" stroke-width="0.8" opacity="0.85"/><polyline points="62,44 90,44 102,56 150,56" fill="none" stroke="#c43dff" stroke-width="1" stroke-linejoin="miter"/><polyline points="112,56 120,64 134,64" fill="none" stroke="#c43dff" stroke-width="1" stroke-linejoin="miter"/><rect x="132.4" y="62.4" width="3.2" height="3.2" fill="#0f0918" stroke="#ff2e9a" stroke-width="0.9"/><polyline points="150,56 160,56" fill="none" stroke="#c43dff" stroke-width="1" stroke-linejoin="miter"/><polygon points="160,56 163,52.5 168,52.5 171,56 168,59.5 163,59.5" fill="#0f0918" stroke="#ff2e9a" stroke-width="1.1"/><polyline points="44,62 44,90 56,102 56,150" fill="none" stroke="#c43dff" stroke-width="1" stroke-linejoin="miter"/><polyline points="56,112 64,120 64,134" fill="none" stroke="#c43dff" stroke-width="1" stroke-linejoin="miter"/><rect x="62.4" y="132.4" width="3.2" height="3.2" fill="#0f0918" stroke="#ff2e9a" stroke-width="0.9"/><polyline points="56,150 56,160" fill="none" stroke="#c43dff" stroke-width="1" stroke-linejoin="miter"/><polygon points="56,160 52.5,163 52.5,168 56,171 59.5,168 59.5,163" fill="#0f0918" stroke="#ff2e9a" stroke-width="1.1"/></g>
<g filter="url(#voracious-corner-a-glow)" opacity="0.6"><polyline points="32.28,38.16 85.96,60.39 113.45,66.91" fill="none" stroke="#e854ff" stroke-width="1.98" stroke-linejoin="miter" stroke-miterlimit="10"/><polyline points="29.84,35.72 52.08,89.4 66.91,113.45" fill="none" stroke="#e854ff" stroke-width="1.98" stroke-linejoin="miter" stroke-miterlimit="10"/><polyline points="28.7,39.3 72.89,83.5 113.2,113.2" fill="none" stroke="#e854ff" stroke-width="2.42" stroke-linejoin="miter" stroke-miterlimit="10"/><polyline points="69.36,58.75 83.5,72.89 113.2,113.2" fill="none" stroke="#e854ff" stroke-width="2.4" stroke-linejoin="miter" stroke-miterlimit="10"/><polyline points="28,21 183.2,21 230,13.2" fill="none" stroke="#e854ff" stroke-width="2.64" stroke-linejoin="miter" stroke-miterlimit="10"/><polyline points="21,28 21,183.2 13.2,230" fill="none" stroke="#e854ff" stroke-width="2.64" stroke-linejoin="miter" stroke-miterlimit="10"/><polyline points="64,27.8 84,27.8" fill="none" stroke="#e854ff" stroke-width="3" stroke-linejoin="miter" stroke-miterlimit="10"/><polyline points="87,27.8 99,27.8" fill="none" stroke="#e854ff" stroke-width="3" stroke-linejoin="miter" stroke-miterlimit="10"/><polyline points="102,27.8 108,27.8" fill="none" stroke="#e854ff" stroke-width="3" stroke-linejoin="miter" stroke-miterlimit="10"/><polyline points="27.8,64 27.8,84" fill="none" stroke="#e854ff" stroke-width="3" stroke-linejoin="miter" stroke-miterlimit="10"/><polyline points="27.8,87 27.8,99" fill="none" stroke="#e854ff" stroke-width="3" stroke-linejoin="miter" stroke-miterlimit="10"/><polyline points="27.8,102 27.8,108" fill="none" stroke="#e854ff" stroke-width="3" stroke-linejoin="miter" stroke-miterlimit="10"/></g>
<g><polyline points="32.28,38.16 85.96,60.39 113.45,66.91" fill="none" stroke="#c43dff" stroke-width="0.9" stroke-linejoin="miter" stroke-miterlimit="10"/><polyline points="29.84,35.72 52.08,89.4 66.91,113.45" fill="none" stroke="#c43dff" stroke-width="0.9" stroke-linejoin="miter" stroke-miterlimit="10"/><polyline points="28.7,39.3 72.89,83.5 113.2,113.2" fill="none" stroke="#c43dff" stroke-width="1.1" stroke-linejoin="miter" stroke-miterlimit="10"/><polyline points="69.36,58.75 83.5,72.89 113.2,113.2" fill="none" stroke="#c43dff" stroke-width="1.1" stroke-linejoin="miter" stroke-miterlimit="10"/><polyline points="28,21 183.2,21 230,13.2" fill="none" stroke="#c43dff" stroke-width="1.2" stroke-linejoin="miter" stroke-miterlimit="10"/><polyline points="21,28 21,183.2 13.2,230" fill="none" stroke="#c43dff" stroke-width="1.2" stroke-linejoin="miter" stroke-miterlimit="10"/><polyline points="64,27.8 84,27.8" fill="none" stroke="#c43dff" stroke-width="1.6" stroke-linejoin="miter" stroke-miterlimit="10"/><polyline points="87,27.8 99,27.8" fill="none" stroke="#c43dff" stroke-width="1.6" stroke-linejoin="miter" stroke-miterlimit="10"/><polyline points="102,27.8 108,27.8" fill="none" stroke="#c43dff" stroke-width="1.6" stroke-linejoin="miter" stroke-miterlimit="10"/><polyline points="27.8,64 27.8,84" fill="none" stroke="#c43dff" stroke-width="1.6" stroke-linejoin="miter" stroke-miterlimit="10"/><polyline points="27.8,87 27.8,99" fill="none" stroke="#c43dff" stroke-width="1.6" stroke-linejoin="miter" stroke-miterlimit="10"/><polyline points="27.8,102 27.8,108" fill="none" stroke="#c43dff" stroke-width="1.6" stroke-linejoin="miter" stroke-miterlimit="10"/></g>
<g><polygon points="58.94,44.33 44.33,58.94 23.67,58.94 9.06,44.33 9.06,23.67 23.67,9.06 44.33,9.06 58.94,23.67" fill="#0f0918" stroke="#1c1428" stroke-width="1"/><polyline points="43.38,56.64 24.62,56.64" fill="none" stroke="#b8a9d4" stroke-width="0.8" opacity="0.7"/><polyline points="11.36,43.38 11.36,24.62" fill="none" stroke="#b8a9d4" stroke-width="0.8" opacity="0.7"/><polyline points="24.62,11.36 43.38,11.36" fill="none" stroke="#b8a9d4" stroke-width="0.8" opacity="0.7"/><polyline points="56.64,24.62 56.64,43.38" fill="none" stroke="#b8a9d4" stroke-width="0.8" opacity="0.7"/></g>
<g filter="url(#voracious-corner-a-glow)" opacity="0.6"><polyline points="56.64,43.38 43.38,56.64" fill="none" stroke="#e854ff" stroke-width="2.6" stroke-linejoin="miter" stroke-miterlimit="10"/><polyline points="24.62,56.64 11.36,43.38" fill="none" stroke="#e854ff" stroke-width="2.6" stroke-linejoin="miter" stroke-miterlimit="10"/><polyline points="11.36,24.62 24.62,11.36" fill="none" stroke="#e854ff" stroke-width="2.6" stroke-linejoin="miter" stroke-miterlimit="10"/><polyline points="43.38,11.36 56.64,24.62" fill="none" stroke="#e854ff" stroke-width="2.6" stroke-linejoin="miter" stroke-miterlimit="10"/></g>
<g><polyline points="56.64,43.38 43.38,56.64" fill="none" stroke="#c43dff" stroke-width="1.2" stroke-linejoin="miter" stroke-miterlimit="10"/><polyline points="24.62,56.64 11.36,43.38" fill="none" stroke="#c43dff" stroke-width="1.2" stroke-linejoin="miter" stroke-miterlimit="10"/><polyline points="11.36,24.62 24.62,11.36" fill="none" stroke="#c43dff" stroke-width="1.2" stroke-linejoin="miter" stroke-miterlimit="10"/><polyline points="43.38,11.36 56.64,24.62" fill="none" stroke="#c43dff" stroke-width="1.2" stroke-linejoin="miter" stroke-miterlimit="10"/></g>
<polygon points="34.39,31.51 28.43,23.55 36.23,13.09 35.05,27.36" fill="#e854ff"/><polygon points="34.39,31.51 35.05,27.36 36.23,13.09 39.59,17.88 37.72,20.56 41.02,26.18" fill="#4a1379"/><polygon points="36.49,33.61 42.22,25.47 54.57,29.66 40.64,32.95" fill="#8420c9"/><polygon points="36.49,33.61 40.64,32.95 54.57,29.66 51.06,34.33 47.94,33.38 43.6,38.26" fill="#2a0a47"/><polygon points="35.14,36.25 44.65,39.18 44.49,52.22 37.05,39.99" fill="#3a0f60"/><polygon points="35.14,36.25 37.05,39.99 44.49,52.22 38.96,50.33 38.89,47.06 32.91,44.45" fill="#3a0f60"/><polygon points="32.22,35.78 32.37,45.73 19.91,49.61 29.25,38.75" fill="#3a0f60"/><polygon points="32.22,35.78 29.25,38.75 19.91,49.61 20,43.76 23.09,42.69 23.72,36.2" fill="#8420c9"/><polygon points="31.75,32.86 22.34,36.07 14.8,25.42 28.01,30.95" fill="#b62af0"/><polygon points="31.75,32.86 28.01,30.95 14.8,25.42 20.39,23.7 22.36,26.31 28.73,24.91" fill="#b62af0"/><polygon points="35.78,32.22 34.28,26 42.63,24.21 36.95,31.05" fill="#e854ff"/><polygon points="35.78,32.22 36.95,31.05 42.63,24.21 42.99,28.26 40.93,28.77 40.96,33.22" fill="#4a1379"/><polygon points="36.25,35.14 41.7,31.8 45.97,39.18 37.71,35.89" fill="#8420c9"/><polygon points="36.25,35.14 37.71,35.89 45.97,39.18 42.24,40.77 41.11,38.97 36.89,40.37" fill="#4a1379"/><polygon points="33.61,36.49 38.48,40.64 32.77,46.99 33.35,38.12" fill="#4a1379"/><polygon points="33.61,36.49 33.35,38.12 32.77,46.99 30.11,43.93 31.47,42.3 28.83,38.72" fill="#b62af0"/><polygon points="31.51,34.39 29.07,40.31 21.27,36.85 29.88,34.65" fill="#b62af0"/><polygon points="31.51,34.39 29.88,34.65 21.27,36.85 23.35,33.36 25.32,34.16 27.92,30.54" fill="#e854ff"/><polygon points="32.86,31.75 26.48,31.26 27.36,22.77 32.11,30.29" fill="#e854ff"/><polygon points="32.86,31.75 32.11,30.29 27.36,22.77 31.31,23.68 31.17,25.8 35.41,27.14" fill="#e854ff"/><polygon points="38.73,36.73 34,39.46 29.27,36.73 29.27,31.27 34,28.54 38.73,31.27" fill="#0f0918"/><polygon points="34,28.96 35.47,34 34,39.04 32.53,34" fill="#ff2e9a"/>
<g><polyline points="28.43,23.55 36.23,13.09 39.59,17.88 37.72,20.56" fill="none" stroke="#e854ff" stroke-width="0.8" stroke-linejoin="miter" stroke-miterlimit="12"/><polyline points="42.22,25.47 54.57,29.66 51.06,34.33 47.94,33.38" fill="none" stroke="#e854ff" stroke-width="0.8" stroke-linejoin="miter" stroke-miterlimit="12"/><polyline points="44.65,39.18 44.49,52.22 38.96,50.33 38.89,47.06" fill="none" stroke="#e854ff" stroke-width="0.8" stroke-linejoin="miter" stroke-miterlimit="12"/><polyline points="32.37,45.73 19.91,49.61 20,43.76 23.09,42.69" fill="none" stroke="#e854ff" stroke-width="0.8" stroke-linejoin="miter" stroke-miterlimit="12"/><polyline points="22.34,36.07 14.8,25.42 20.39,23.7 22.36,26.31" fill="none" stroke="#e854ff" stroke-width="0.8" stroke-linejoin="miter" stroke-miterlimit="12"/></g>
<path d="M128 123L133 123M123 128L123 133M118 123L113 123M123 118L123 113" stroke="#c43dff" stroke-width="1.2"/><polygon points="123,121 125,123 123,125 121,123" fill="#ff2e9a"/>
<g filter="url(#voracious-corner-a-glow)" opacity="0.5"><path d="M128 123L133 123M123 128L123 133M118 123L113 123M123 118L123 113" stroke="#e854ff" stroke-width="2.6"/></g>
</svg>
