<svg xmlns="http://www.w3.org/2000/svg" viewBox="0 0 240 240" width="240" height="240">
<title>Ruinous — faceted blood rose</title>
<defs><filter id="ruinous-rose-bloom-glow" filterUnits="userSpaceOnUse" x="0" y="0" width="240" height="240"><feGaussianBlur stdDeviation="2"/></filter></defs>
<path fill="#2a2226" stroke="#2a2226" stroke-width="0.8" stroke-linejoin="round" d="M118 122L134.81 97.85L163.84 66.17L166.33 64.72L198.71 45.87L226.78 30.72L206.9 55.63L182.66 84.19L180.26 85.75L144.26 109.11Z"/><path fill="#e8d6c4" d="M118 122L134.81 97.85L163.84 66.17L166.33 64.72L174.56 74.54Z"/><path fill="#4a3f44" d="M118 122L174.56 74.54L182.66 84.19L180.26 85.75L144.26 109.11Z"/><path fill="#e8d6c4" d="M174.56 74.54L198.71 45.87L226.78 30.72L203.28 50.44Z"/><path fill="#4a3f44" d="M174.56 74.54L203.28 50.44L226.78 30.72L206.9 55.63Z"/><g fill="none"><path stroke="#ff3653" stroke-width="2.4" opacity="0.6" filter="url(#ruinous-rose-bloom-glow)" d="M226.78 30.72L206.9 55.63L182.66 84.19L180.26 85.75L144.26 109.11"/><path stroke="#ff1f45" stroke-width="1.1" d="M226.78 30.72L206.9 55.63L182.66 84.19L180.26 85.75L144.26 109.11"/></g><path fill="none" stroke="#2a2226" stroke-width="0.9" d="M205.02 48.98L215.9 39.85"/><path fill="#ff1f45" d="M213.65 39.65L216.1 37.6L218.15 40.05L215.7 42.11Z"/><path fill="#2a2226" stroke="#2a2226" stroke-width="0.8" stroke-linejoin="round" d="M118 122L101.5 145.9L72.93 177.18L70.47 178.61L38.49 197.13L10.75 211.99L30.3 187.37L54.13 159.14L56.5 157.61L92.05 134.64Z"/><path fill="#4a3f44" d="M118 122L101.5 145.9L72.93 177.18L70.47 178.61L62.23 168.79Z"/><path fill="#e8d6c4" d="M118 122L62.23 168.79L54.13 159.14L56.5 157.61L92.05 134.64Z"/><path fill="#4a3f44" d="M62.23 168.79L38.49 197.13L10.75 211.99L33.92 192.55Z"/><path fill="#e8d6c4" d="M62.23 168.79L33.92 192.55L10.75 211.99L30.3 187.37Z"/><g fill="none"><path stroke="#ff3653" stroke-width="2.4" opacity="0.6" filter="url(#ruinous-rose-bloom-glow)" d="M10.75 211.99L30.3 187.37L54.13 159.14L56.5 157.61L92.05 134.64"/><path stroke="#ff1f45" stroke-width="1.1" d="M10.75 211.99L30.3 187.37L54.13 159.14L56.5 157.61L92.05 134.64"/></g><path fill="none" stroke="#2a2226" stroke-width="0.9" d="M32.2 193.99L21.48 202.99"/><path fill="#ff1f45" d="M23.73 203.19L21.28 205.25L19.22 202.79L21.68 200.74Z"/><path fill="#2a2226" stroke="#2a2226" stroke-width="0.8" stroke-linejoin="round" d="M118 122L95.34 119.37L63.09 111.09L61.19 109.9L36.55 94.55L16.01 80.79L40.3 85.27L68.67 91.39L70.61 92.47L99.66 108.66Z"/><path fill="#4a3f44" d="M118 122L95.34 119.37L63.09 111.09L61.19 109.9L64.97 100.57Z"/><path fill="#b9aeaa" d="M118 122L64.97 100.57L68.67 91.39L70.61 92.47L99.66 108.66Z"/><path fill="#9a8a80" d="M64.97 100.57L36.55 94.55L16.01 80.79L38.04 89.69Z"/><path fill="#e8d6c4" d="M64.97 100.57L38.04 89.69L16.01 80.79L40.3 85.27Z"/><g fill="none"><path stroke="#ff3653" stroke-width="2.4" opacity="0.6" filter="url(#ruinous-rose-bloom-glow)" d="M16.01 80.79L40.3 85.27L68.67 91.39L70.61 92.47L99.66 108.66"/><path stroke="#ff1f45" stroke-width="1.1" d="M16.01 80.79L40.3 85.27L68.67 91.39L70.61 92.47L99.66 108.66"/></g><path fill="#2a2226" stroke="#2a2226" stroke-width="0.8" stroke-linejoin="round" d="M118 122L131.7 139.76L147.92 168.15L148.37 170.3L154.25 198.21L158.46 222.14L144.97 201.96L129.86 177.78L129.3 175.67L120.99 144.09Z"/><path fill="#9a8a80" d="M118 122L131.7 139.76L147.92 168.15L148.37 170.3L139.04 174.07Z"/><path fill="#b9aeaa" d="M118 122L139.04 174.07L129.86 177.78L129.3 175.67L120.99 144.09Z"/><path fill="#9a8a80" d="M139.04 174.07L154.25 198.21L158.46 222.14L149.72 200.51Z"/><path fill="#b9aeaa" d="M139.04 174.07L149.72 200.51L158.46 222.14L144.97 201.96Z"/><g fill="none"><path stroke="#ff3653" stroke-width="2.4" opacity="0.6" filter="url(#ruinous-rose-bloom-glow)" d="M158.46 222.14L144.97 201.96L129.86 177.78L129.3 175.67L120.99 144.09"/><path stroke="#ff1f45" stroke-width="1.1" d="M158.46 222.14L144.97 201.96L129.86 177.78L129.3 175.67L120.99 144.09"/></g><path fill="#34040c" d="M159.2 113.24L159.41 129.68L153.32 144.94L141.86 156.71L126.76 163.2L110.32 163.41L95.06 157.32L83.29 145.86L76.8 130.76L76.59 114.32L82.68 99.06L94.14 87.29L109.24 80.8L125.68 80.59L140.94 86.68L152.71 98.14Z"/><path fill="#34040c" d="M130.32 119.38L161.13 84.62L179.7 96.78L199 122L181.89 136.32L167.34 143.69Z"/><path fill="#640817" d="M159.1 116.99L179.7 96.78L199 122Z"/><path fill="#640817" d="M159.1 116.99L199 122L181.89 136.32Z"/><path fill="#4f0712" d="M130.32 119.38L161.13 84.62L179.7 96.78L159.1 116.99Z"/><path fill="#640817" d="M130.32 119.38L159.1 116.99L181.89 136.32L167.34 143.69Z"/><path fill="#640817" d="M161.13 84.62L179.7 96.78L178.29 98.17L161 86.59Z"/><path fill="#4f0712" d="M179.7 96.78L199 122L197.04 121.75L178.29 98.17Z"/><path fill="#4f0712" d="M199 122L181.89 136.32L180.38 135.04L197.04 121.75Z"/><path fill="#4f0712" d="M181.89 136.32L167.34 143.69L166.75 141.8L180.38 135.04Z"/><path fill="#34040c" d="M127.73 130L174.12 132.41L176.19 154.52L168.5 185.33L146.63 180.88L131.8 174.1Z"/><path fill="#640817" d="M147.54 151.01L176.19 154.52L168.5 185.33Z"/><path fill="#4f0712" d="M147.54 151.01L168.5 185.33L146.63 180.88Z"/><path fill="#4f0712" d="M127.73 130L174.12 132.41L176.19 154.52L147.54 151.01Z"/><path fill="#4f0712" d="M127.73 130L147.54 151.01L146.63 180.88L131.8 174.1Z"/><path fill="#4f0712" d="M174.12 132.41L176.19 154.52L174.22 154.28L172.5 133.55Z"/><path fill="#4f0712" d="M176.19 154.52L168.5 185.33L167.47 183.64L174.22 154.28Z"/><path fill="#4f0712" d="M168.5 185.33L146.63 180.88L146.69 178.9L167.47 183.64Z"/><path fill="#4f0712" d="M146.63 180.88L131.8 174.1L132.92 172.46L146.69 178.9Z"/><path fill="#34040c" d="M117.81 134.6L144.85 172.37L128.85 187.77L99.98 200.97L89.82 181.1L85.87 165.27Z"/><path fill="#640817" d="M113.74 163.18L128.85 187.77L99.98 200.97Z"/><path fill="#4f0712" d="M113.74 163.18L99.98 200.97L89.82 181.1Z"/><path fill="#640817" d="M117.81 134.6L144.85 172.37L128.85 187.77L113.74 163.18Z"/><path fill="#34040c" d="M117.81 134.6L113.74 163.18L89.82 181.1L85.87 165.27Z"/><path fill="#4f0712" d="M144.85 172.37L128.85 187.77L127.82 186.08L142.95 171.81Z"/><path fill="#4f0712" d="M128.85 187.77L99.98 200.97L100.65 199.11L127.82 186.08Z"/><path fill="#4f0712" d="M99.98 200.97L89.82 181.1L91.41 179.91L100.65 199.11Z"/><path fill="#640817" d="M89.82 181.1L85.87 165.27L87.85 165.13L91.41 179.91Z"/><path fill="#34040c" d="M108.03 129.71L95.36 174.39L73.35 171.49L45.02 157.14L54.23 136.82L64.14 123.86Z"/><path fill="#b10a27" d="M83.15 144.34L73.35 171.49L45.02 157.14Z"/><path fill="#640817" d="M83.15 144.34L45.02 157.14L54.23 136.82Z"/><path fill="#640817" d="M108.03 129.71L95.36 174.39L73.35 171.49L83.15 144.34Z"/><path fill="#4f0712" d="M108.03 129.71L83.15 144.34L54.23 136.82L64.14 123.86Z"/><path fill="#4f0712" d="M95.36 174.39L73.35 171.49L74.02 169.63L94.62 172.56Z"/><path fill="#4f0712" d="M73.35 171.49L45.02 157.14L46.9 156.51L74.02 169.63Z"/><path fill="#ff3653" d="M45.02 157.14L54.23 136.82L56.14 137.31L46.9 156.51Z"/><path fill="#ff1f45" d="M54.23 136.82L64.14 123.86L65.48 125.31L56.14 137.31Z"/><path fill="#34040c" d="M105.76 119.01L62.92 136.97L51.46 117.95L45.02 86.86L66.65 81.38L82.96 81.05Z"/><path fill="#b10a27" d="M78.8 108.68L51.46 117.95L45.02 86.86Z"/><path fill="#640817" d="M78.8 108.68L45.02 86.86L66.65 81.38Z"/><path fill="#b10a27" d="M105.76 119.01L62.92 136.97L51.46 117.95L78.8 108.68Z"/><path fill="#640817" d="M105.76 119.01L78.8 108.68L66.65 81.38L82.96 81.05Z"/><path fill="#b10a27" d="M62.92 136.97L51.46 117.95L53.34 117.31L63.89 135.24Z"/><path fill="#e0183a" d="M51.46 117.95L45.02 86.86L46.68 87.93L53.34 117.31Z"/><path fill="#ff1f45" d="M45.02 86.86L66.65 81.38L67.46 83.19L46.68 87.93Z"/><path fill="#ff1f45" d="M66.65 81.38L82.96 81.05L82.67 83.01L67.46 83.19Z"/><path fill="#34040c" d="M112.7 110.57L71.96 88.27L79.68 67.45L99.98 43.03L117.75 56.53L128.17 69.07Z"/><path fill="#640817" d="M103.97 83.05L79.68 67.45L99.98 43.03Z"/><path fill="#b10a27" d="M103.97 83.05L99.98 43.03L117.75 56.53Z"/><path fill="#640817" d="M112.7 110.57L71.96 88.27L79.68 67.45L103.97 83.05Z"/><path fill="#b10a27" d="M112.7 110.57L103.97 83.05L117.75 56.53L128.17 69.07Z"/><path fill="#ff1f45" d="M71.96 88.27L79.68 67.45L81.35 68.52L73.91 87.95Z"/><path fill="#ff1f45" d="M79.68 67.45L99.98 43.03L100.17 45L81.35 68.52Z"/><path fill="#e0183a" d="M99.98 43.03L117.75 56.53L116.83 58.29L100.17 45Z"/><path fill="#b10a27" d="M117.75 56.53L128.17 69.07L126.45 70.06L116.83 58.29Z"/><path fill="#34040c" d="M123.64 110.73L115.66 64.97L136.76 58.03L168.5 58.67L169.03 80.98L165.72 96.95Z"/><path fill="#640817" d="M139.71 86.75L136.76 58.03L168.5 58.67Z"/><path fill="#b10a27" d="M139.71 86.75L168.5 58.67L169.03 80.98Z"/><path fill="#640817" d="M123.64 110.73L115.66 64.97L136.76 58.03L139.71 86.75Z"/><path fill="#b10a27" d="M123.64 110.73L139.71 86.75L169.03 80.98L165.72 96.95Z"/><path fill="#ff1f45" d="M115.66 64.97L136.76 58.03L136.96 60L117.13 66.3Z"/><path fill="#ff3653" d="M136.76 58.03L168.5 58.67L167.09 60.05L136.96 60Z"/><path fill="#4f0712" d="M168.5 58.67L169.03 80.98L167.09 81.36L167.09 60.05Z"/><path fill="#4f0712" d="M169.03 80.98L165.72 96.95L163.88 96.23L167.09 81.36Z"/><g fill="none" stroke-linejoin="miter"><path stroke="#ff3653" stroke-width="2.4" opacity="0.6" filter="url(#ruinous-rose-bloom-glow)" d="M161.13 84.62L179.7 96.78L199 122M174.12 132.41L176.19 154.52L168.5 185.33M144.85 172.37L128.85 187.77L99.98 200.97M95.36 174.39L73.35 171.49L45.02 157.14M62.92 136.97L51.46 117.95L45.02 86.86M71.96 88.27L79.68 67.45L99.98 43.03M115.66 64.97L136.76 58.03L168.5 58.67"/><path stroke="#ff1f45" stroke-width="1.1" d="M161.13 84.62L179.7 96.78L199 122M174.12 132.41L176.19 154.52L168.5 185.33M144.85 172.37L128.85 187.77L99.98 200.97M95.36 174.39L73.35 171.49L45.02 157.14M62.92 136.97L51.46 117.95L45.02 86.86M71.96 88.27L79.68 67.45L99.98 43.03M115.66 64.97L136.76 58.03L168.5 58.67"/></g><path fill="#34040c" d="M145.73 131.01L140.17 140.94L131.24 147.98L120.29 151.07L108.99 149.73L99.06 144.17L92.02 135.24L88.93 124.29L90.27 112.99L95.83 103.06L104.76 96.02L115.71 92.93L127.01 94.27L136.94 99.83L143.98 108.76L147.07 119.71Z"/><path fill="#34040c" d="M124.85 124.22L158.79 113.47L164.57 130.36L163.87 155.33L148.62 156.48L137.43 155.11Z"/><path fill="#640817" d="M143.18 134.02L164.57 130.36L163.87 155.33Z"/><path fill="#640817" d="M143.18 134.02L163.87 155.33L148.62 156.48Z"/><path fill="#4f0712" d="M124.85 124.22L158.79 113.47L164.57 130.36L143.18 134.02Z"/><path fill="#640817" d="M124.85 124.22L143.18 134.02L148.62 156.48L137.43 155.11Z"/><path fill="#4f0712" d="M158.79 113.47L164.57 130.36L162.91 130.65L157.77 114.81Z"/><path fill="#4f0712" d="M164.57 130.36L163.87 155.33L162.7 154.12L162.91 130.65Z"/><path fill="#4f0712" d="M163.87 155.33L148.62 156.48L148.22 154.84L162.7 154.12Z"/><path fill="#4f0712" d="M148.62 156.48L137.43 155.11L137.87 153.49L148.22 154.84Z"/><path fill="#34040c" d="M119.5 129.04L145.78 153.06L134.04 166.51L112.07 178.39L103.45 165.75L99.04 155.38Z"/><path fill="#b10a27" d="M120.18 149.82L134.04 166.51L112.07 178.39Z"/><path fill="#4f0712" d="M120.18 149.82L112.07 178.39L103.45 165.75Z"/><path fill="#640817" d="M119.5 129.04L145.78 153.06L134.04 166.51L120.18 149.82Z"/><path fill="#34040c" d="M119.5 129.04L120.18 149.82L103.45 165.75L99.04 155.38Z"/><path fill="#4f0712" d="M145.78 153.06L134.04 166.51L132.96 165.22L144.11 152.85Z"/><path fill="#4f0712" d="M134.04 166.51L112.07 178.39L112.53 176.77L132.96 165.22Z"/><path fill="#4f0712" d="M112.07 178.39L103.45 165.75L104.67 164.59L112.53 176.77Z"/><path fill="#640817" d="M103.45 165.75L99.04 155.38L100.66 154.95L104.67 164.59Z"/><path fill="#34040c" d="M112.65 126.82L104.99 161.59L87.47 158.15L66.2 145.06L72.83 131.27L79.61 122.27Z"/><path fill="#b10a27" d="M95 137.79L87.47 158.15L66.2 145.06Z"/><path fill="#640817" d="M95 137.79L66.2 145.06L72.83 131.27Z"/><path fill="#b10a27" d="M112.65 126.82L104.99 161.59L87.47 158.15L95 137.79Z"/><path fill="#4f0712" d="M112.65 126.82L95 137.79L72.83 131.27L79.61 122.27Z"/><path fill="#4f0712" d="M104.99 161.59L87.47 158.15L88.06 156.57L104.34 160.04Z"/><path fill="#4f0712" d="M87.47 158.15L66.2 145.06L67.83 144.65L88.06 156.57Z"/><path fill="#ff1f45" d="M66.2 145.06L72.83 131.27L74.45 131.75L67.83 144.65Z"/><path fill="#ff1f45" d="M72.83 131.27L79.61 122.27L80.8 123.46L74.45 131.75Z"/><path fill="#34040c" d="M111.15 119.78L77.21 130.53L71.43 113.64L72.13 88.67L87.38 87.52L98.57 88.89Z"/><path fill="#b10a27" d="M92.82 109.98L71.43 113.64L72.13 88.67Z"/><path fill="#640817" d="M92.82 109.98L72.13 88.67L87.38 87.52Z"/><path fill="#b10a27" d="M111.15 119.78L77.21 130.53L71.43 113.64L92.82 109.98Z"/><path fill="#640817" d="M111.15 119.78L92.82 109.98L87.38 87.52L98.57 88.89Z"/><path fill="#e0183a" d="M77.21 130.53L71.43 113.64L73.09 113.35L78.23 129.19Z"/><path fill="#ff3653" d="M71.43 113.64L72.13 88.67L73.3 89.88L73.09 113.35Z"/><path fill="#ff1f45" d="M72.13 88.67L87.38 87.52L87.78 89.16L73.3 89.88Z"/><path fill="#ff1f45" d="M87.38 87.52L98.57 88.89L98.13 90.51L87.78 89.16Z"/><path fill="#34040c" d="M116.5 114.96L90.22 90.94L101.96 77.49L123.93 65.61L132.55 78.25L136.96 88.62Z"/><path fill="#640817" d="M115.82 94.18L101.96 77.49L123.93 65.61Z"/><path fill="#e0183a" d="M115.82 94.18L123.93 65.61L132.55 78.25Z"/><path fill="#640817" d="M116.5 114.96L90.22 90.94L101.96 77.49L115.82 94.18Z"/><path fill="#b10a27" d="M116.5 114.96L115.82 94.18L132.55 78.25L136.96 88.62Z"/><path fill="#ff1f45" d="M90.22 90.94L101.96 77.49L103.04 78.78L91.89 91.15Z"/><path fill="#ff1f45" d="M101.96 77.49L123.93 65.61L123.47 67.23L103.04 78.78Z"/><path fill="#640817" d="M123.93 65.61L132.55 78.25L131.33 79.41L123.47 67.23Z"/><path fill="#4f0712" d="M132.55 78.25L136.96 88.62L135.34 89.05L131.33 79.41Z"/><path fill="#34040c" d="M123.35 117.18L131.01 82.41L148.53 85.85L169.8 98.94L163.17 112.73L156.39 121.73Z"/><path fill="#640817" d="M141 106.21L148.53 85.85L169.8 98.94Z"/><path fill="#e0183a" d="M141 106.21L169.8 98.94L163.17 112.73Z"/><path fill="#4f0712" d="M123.35 117.18L131.01 82.41L148.53 85.85L141 106.21Z"/><path fill="#b10a27" d="M123.35 117.18L141 106.21L163.17 112.73L156.39 121.73Z"/><path fill="#e0183a" d="M131.01 82.41L148.53 85.85L147.94 87.43L131.66 83.96Z"/><path fill="#b10a27" d="M148.53 85.85L169.8 98.94L168.17 99.35L147.94 87.43Z"/><path fill="#4f0712" d="M169.8 98.94L163.17 112.73L161.55 112.25L168.17 99.35Z"/><path fill="#4f0712" d="M163.17 112.73L156.39 121.73L155.2 120.54L161.55 112.25Z"/><path fill="#34040c" d="M129.45 135.65L123.36 139L116.45 139.75L109.77 137.81L104.35 133.45L101 127.36L100.25 120.45L102.19 113.77L106.55 108.35L112.64 105L119.55 104.25L126.23 106.19L131.65 110.55L135 116.64L135.75 123.55L133.81 130.23Z"/><path fill="#34040c" d="M120.31 124.76L142.48 131.3L138.92 143.54L128.17 157.47L120.62 151.11L115.54 145.82Z"/><path fill="#e0183a" d="M126.62 136.77L138.92 143.54L128.17 157.47Z"/><path fill="#640817" d="M126.62 136.77L128.17 157.47L120.62 151.11Z"/><path fill="#640817" d="M120.31 124.76L142.48 131.3L138.92 143.54L126.62 136.77Z"/><path fill="#4f0712" d="M120.31 124.76L126.62 136.77L120.62 151.11L115.54 145.82Z"/><path fill="#4f0712" d="M142.48 131.3L138.92 143.54L137.44 142.73L140.89 131.85Z"/><path fill="#4f0712" d="M138.92 143.54L128.17 157.47L128.05 155.79L137.44 142.73Z"/><path fill="#4f0712" d="M128.17 157.47L120.62 151.11L121.27 149.56L128.05 155.79Z"/><path fill="#4f0712" d="M120.62 151.11L115.54 145.82L116.85 144.75L121.27 149.56Z"/><path fill="#34040c" d="M116.09 125.05L116.72 148.15L103.98 148.55L87.41 142.63L91.12 133.49L94.59 127.02Z"/><path fill="#e0183a" d="M106.62 134.76L103.98 148.55L87.41 142.63Z"/><path fill="#4f0712" d="M106.62 134.76L87.41 142.63L91.12 133.49Z"/><path fill="#e0183a" d="M116.09 125.05L116.72 148.15L103.98 148.55L106.62 134.76Z"/><path fill="#34040c" d="M116.09 125.05L106.62 134.76L91.12 133.49L94.59 127.02Z"/><path fill="#4f0712" d="M116.72 148.15L103.98 148.55L104.3 146.89L115.71 146.81Z"/><path fill="#4f0712" d="M103.98 148.55L87.41 142.63L88.97 142L104.3 146.89Z"/><path fill="#ff1f45" d="M87.41 142.63L91.12 133.49L92.8 133.63L88.97 142Z"/><path fill="#ff1f45" d="M91.12 133.49L94.59 127.02L96 127.93L92.8 133.63Z"/><path fill="#34040c" d="M114.51 121.13L92.73 128.87L88.42 116.87L88.92 99.28L98.77 99.99L105.99 101.29Z"/><path fill="#640817" d="M102.35 115.12L88.42 116.87L88.92 99.28Z"/><path fill="#640817" d="M102.35 115.12L88.92 99.28L98.77 99.99Z"/><path fill="#b10a27" d="M114.51 121.13L92.73 128.87L88.42 116.87L102.35 115.12Z"/><path fill="#640817" d="M114.51 121.13L102.35 115.12L98.77 99.99L105.99 101.29Z"/><path fill="#e0183a" d="M92.73 128.87L88.42 116.87L90.09 116.66L93.7 127.49Z"/><path fill="#ff1f45" d="M88.42 116.87L88.92 99.28L90.01 100.57L90.09 116.66Z"/><path fill="#ff1f45" d="M88.92 99.28L98.77 99.99L99.16 101.63L90.01 100.57Z"/><path fill="#ff1f45" d="M98.77 99.99L105.99 101.29L105.56 102.91L99.16 101.63Z"/><path fill="#34040c" d="M117.75 118.41L103.66 100.09L113.74 92.28L130.62 87.33L132.99 96.91L133.99 104.18Z"/><path fill="#640817" d="M119.71 104.99L113.74 92.28L130.62 87.33Z"/><path fill="#e0183a" d="M119.71 104.99L130.62 87.33L132.99 96.91Z"/><path fill="#640817" d="M117.75 118.41L103.66 100.09L113.74 92.28L119.71 104.99Z"/><path fill="#e0183a" d="M117.75 118.41L119.71 104.99L132.99 96.91L133.99 104.18Z"/><path fill="#ff1f45" d="M103.66 100.09L113.74 92.28L114.45 93.8L105.27 100.58Z"/><path fill="#ff1f45" d="M113.74 92.28L130.62 87.33L129.74 88.76L114.45 93.8Z"/><path fill="#4f0712" d="M130.62 87.33L132.99 96.91L131.55 97.78L129.74 88.76Z"/><path fill="#4f0712" d="M132.99 96.91L133.99 104.18L132.31 104.27L131.55 97.78Z"/><path fill="#34040c" d="M121.34 120.65L134.41 101.59L144.95 108.76L154.88 123.29L146.5 128.5L139.89 131.7Z"/><path fill="#640817" d="M134.71 118.37L144.95 108.76L154.88 123.29Z"/><path fill="#e0183a" d="M134.71 118.37L154.88 123.29L146.5 128.5Z"/><path fill="#4f0712" d="M121.34 120.65L134.41 101.59L144.95 108.76L134.71 118.37Z"/><path fill="#b10a27" d="M121.34 120.65L134.71 118.37L146.5 128.5L139.89 131.7Z"/><path fill="#b10a27" d="M134.41 101.59L144.95 108.76L143.72 109.91L134.44 103.28Z"/><path fill="#4f0712" d="M144.95 108.76L154.88 123.29L153.24 122.89L143.72 109.91Z"/><path fill="#4f0712" d="M154.88 123.29L146.5 128.5L145.22 127.41L153.24 122.89Z"/><path fill="#4f0712" d="M146.5 128.5L139.89 131.7L139.28 130.13L145.22 127.41Z"/><path fill="#34040c" d="M132.81 130.55L120.47 137.59L108.31 132.76L104.86 121.31L111.03 112.41L120.73 111.82L126.43 118.25L125.05 125.59L119.37 128.46L114.67 126.11L114.03 122L116.32 119.93L118.28 120.68Z"/><path fill="#34040c" d="M132.81 130.55L120.47 137.59L118 122Z"/><path fill="#4f0712" d="M132.81 130.55L120.47 137.59L120.24 136.17L131.56 129.83Z"/><path fill="#640817" d="M120.47 137.59L108.31 132.76L118 122Z"/><path fill="#4f0712" d="M120.47 137.59L108.31 132.76L109.28 131.69L120.24 136.17Z"/><path fill="#b10a27" d="M108.31 132.76L104.86 121.31L118 122Z"/><path fill="#e0183a" d="M108.31 132.76L104.86 121.31L106.29 121.39L109.28 131.69Z"/><path fill="#e0183a" d="M104.86 121.31L111.03 112.41L118 122Z"/><path fill="#ff1f45" d="M104.86 121.31L111.03 112.41L111.88 113.58L106.29 121.39Z"/><path fill="#e0183a" d="M111.03 112.41L120.73 111.82L118 122Z"/><path fill="#ff1f45" d="M111.03 112.41L120.73 111.82L120.35 113.21L111.88 113.58Z"/><path fill="#640817" d="M120.73 111.82L126.43 118.25L118 122Z"/><path fill="#640817" d="M120.73 111.82L126.43 118.25L125.11 118.83L120.35 113.21Z"/><path fill="#640817" d="M126.43 118.25L125.05 125.59L118 122Z"/><path fill="#4f0712" d="M126.43 118.25L125.05 125.59L123.77 124.94L125.11 118.83Z"/><path fill="#34040c" d="M125.05 125.59L119.37 128.46L118 122Z"/><path fill="#4f0712" d="M125.05 125.59L119.37 128.46L119.07 127.05L123.77 124.94Z"/><path fill="#34040c" d="M119.37 128.46L114.67 126.11L118 122Z"/><path fill="#4f0712" d="M119.37 128.46L114.67 126.11L115.58 124.99L119.07 127.05Z"/><path fill="#e0183a" d="M114.67 126.11L114.03 122L118 122Z"/><path fill="#ff1f45" d="M114.67 126.11L114.03 122L115.47 122L115.58 124.99Z"/><path fill="#e0183a" d="M114.03 122L116.32 119.93L118 122Z"/><path fill="#ff1f45" d="M114.03 122L116.32 119.93L116.99 120.76L115.47 122Z"/><path fill="#640817" d="M116.32 119.93L118.28 120.68L118 122Z"/><path fill="#b10a27" d="M116.32 119.93L118.28 120.68L118.17 121.21L116.99 120.76Z"/>
</svg>
