<svg xmlns="http://www.w3.org/2000/svg" viewBox="0 0 64 64" width="64" height="64">
<title>Ruinous — pattern A</title>
<path fill="none" stroke="#2a2226" stroke-width=".7" stroke-opacity=".3" d="M37.15 5.15 47.42 15.42M49.68 17.68 59.95 27.95M49.82 15.28 47.28 17.82M59.95 37.15 49.68 47.42M47.42 49.68 37.15 59.95M49.82 49.82 47.28 47.28M27.95 59.95 17.68 49.68M15.42 47.42 5.15 37.15M15.28 49.82 17.82 47.28M5.15 27.95 15.42 17.68M17.68 15.42 27.95 5.15M15.28 15.28 17.82 17.82M32.5 29.9 35.1 32.5 32.5 35.1 29.9 32.5ZM36.74 36.74 39.22 39.22M28.26 36.74 25.78 39.22M28.26 28.26 25.78 25.78M36.74 28.26 39.22 25.78"/>
<path fill="none" stroke="#b9aeaa" stroke-width=".7" stroke-opacity=".24" d="M36.6 4.6 46.87 14.87M49.13 17.13 59.4 27.4M59.4 36.6 49.13 46.87M46.87 49.13 36.6 59.4M27.4 59.4 17.13 49.13M14.87 46.87 4.6 36.6M4.6 27.4 14.87 17.13M17.13 14.87 27.4 4.6"/>
<path fill="none" stroke="#b9aeaa" stroke-width=".7" stroke-opacity=".34" d="M49.27 14.73 46.73 17.27M49.27 49.27 46.73 46.73M14.73 49.27 17.27 46.73M14.73 14.73 17.27 17.27"/>
<path fill="none" stroke="#b9aeaa" stroke-width=".7" stroke-opacity=".3" d="M32 29.4 34.6 32 32 34.6 29.4 32Z"/>
<path fill="none" stroke="#b9aeaa" stroke-width=".7" stroke-opacity=".26" d="M36.24 36.24 38.72 38.72M27.76 36.24 25.28 38.72M27.76 27.76 25.28 25.28M36.24 27.76 38.72 25.28"/>
<g opacity=".78">
<path fill="#ff3653" d="M30.55 60.71 33.01 58.29 32.32 59.89ZM32.47 -2.03 34.84 -2.39 33.67 -1.83ZM32.47 61.97 34.84 61.61 33.67 62.17ZM30.21 -1.07 30.61 -3.44 30.77 -2.15ZM30.21 62.93 30.61 60.56 30.77 61.85ZM30.77 61.85 30.61 60.56 31.52 61.9Z"/>
<path fill="#e0183a" d="M32.32 59.89 33.01 58.29 33.49 60.61ZM28.42 .36 26.88 -2.72 28.19 -1.58ZM28.42 64.36 26.88 61.28 28.19 62.42ZM28.19 -1.58 26.88 -2.72 29.24 -2.47ZM28.19 62.42 26.88 61.28 29.24 61.53ZM32.69 -.1 34.08 -.18 34.26 1.02 33.62 1.41 32.5 .48ZM32.69 63.9 34.08 63.82 34.26 65.02 33.62 65.41 32.5 64.48ZM32.3 .63 32.82 1.92 31.73 2.46 31.16 1.98 31.7 .63ZM32.3 64.63 32.82 65.92 31.73 66.46 31.16 65.98 31.7 64.63ZM29.57 .5 28.3 .26 29.86 -.19ZM29.57 64.5 28.3 64.26 29.86 63.81ZM31.95 .13 31.41 -.49 32.54 -.64ZM31.95 64.13 31.41 63.51 32.54 63.36Z"/>
<path fill="#34040c" d="M31.37 -1.3 30.55 -3.29 32.32 -4.11 33.49 -3.39 32.63 -1.3ZM31.37 62.7 30.55 60.71 32.32 59.89 33.49 60.61 32.63 62.7ZM34.16 3.52 34.54 5.21 32.79 3.62ZM30.56 .2 28.42 .36 28.19 -1.58 29.24 -2.47 30.96 -1.01ZM30.56 64.2 28.42 64.36 28.19 62.42 29.24 61.53 30.96 62.99ZM31.39 -.33 30.21 -1.07 30.77 -2.15 31.52 -2.1 31.88 -.69ZM31.39 63.67 30.21 62.93 30.77 61.85 31.52 61.9 31.88 63.31ZM32.24 -.65 32.7 .02 32.19 .67 31.42 .39 31.45 -.43ZM32.24 63.35 32.7 64.02 32.19 64.67 31.42 64.39 31.45 63.57Z"/>
<path fill="#b10a27" d="M34.68 -2.39 37.74 -.81 36.01 -.96ZM34.68 61.61 37.74 63.19 36.01 63.04ZM33.28 .68 35.11 1.81 34.16 3.52 32.79 3.62 32.25 1.43ZM33.28 64.68 35.11 65.81 34.16 67.52 32.79 67.62 32.25 65.43ZM33.67 -1.83 34.84 -2.39 33.84 -1.11ZM33.67 62.17 34.84 61.61 33.84 62.89ZM34.08 -.18 35.15 1.97 34.26 1.02ZM34.08 63.82 35.15 65.97 34.26 65.02ZM30.43 1.37 28.3 .26 29.57 .5ZM30.43 65.37 28.3 64.26 29.57 64.5Z"/>
<path fill="#4f0712" d="M36.01 -.96 37.74 -.81 35.69 .37ZM36.01 63.04 37.74 63.19 35.69 64.37ZM35.11 1.81 34.54 5.21 34.16 3.52ZM35.11 65.81 34.54 69.21 34.16 67.52ZM31.24 3.51 27.83 4.03 29.32 3.14ZM32.12 -.69 32.47 -2.03 33.67 -1.83 33.84 -1.11 32.61 -.33ZM32.12 63.31 32.47 61.97 33.67 62.17 33.84 62.89 32.61 63.67ZM34.26 1.02 35.15 1.97 33.62 1.41ZM34.26 65.02 35.15 65.97 33.62 65.41ZM31.5 .48 30.43 1.37 29.57 .5 29.86 -.19 31.31 -.1ZM31.5 64.48 30.43 65.37 29.57 64.5 29.86 63.81 31.31 63.9Z"/>
<path fill="#640817" d="M33.04 -1.01 34.68 -2.39 36.01 -.96 35.69 .37 33.44 .2ZM33.04 62.99 34.68 61.61 36.01 63.04 35.69 64.37 33.44 64.2ZM29.32 3.14 27.83 4.03 28.8 1.87ZM29.32 67.14 27.83 68.03 28.8 65.87ZM31.75 1.43 31.24 3.51 29.32 3.14 28.8 1.87 30.72 .68ZM31.75 65.43 31.24 67.51 29.32 67.14 28.8 65.87 30.72 64.68ZM32.82 1.92 31.1 3.6 31.73 2.46ZM32.82 65.92 31.1 67.6 31.73 66.46ZM31.73 2.46 31.1 3.6 31.16 1.98ZM31.73 66.46 31.1 67.6 31.16 65.98Z"/>
<path fill="#ff3653" fill-opacity=".9" d="M32.05 -.13 32.56 .47 31.69 .54ZM32.05 63.87 32.56 64.47 31.69 64.54Z"/>
</g>
<g opacity=".55">
<path fill="#b9aeaa" d="M0 32 .96 32 3.39 35.39ZM64 32 64.96 32 67.39 35.39ZM0 32 0 32.96 -3.39 35.39ZM64 32 64 32.96 60.61 35.39ZM0 32 -.96 32 -3.39 28.61ZM64 32 63.04 32 60.61 28.61ZM0 32 0 31.04 3.39 28.61ZM64 32 64 31.04 67.39 28.61Z"/>
<path fill="#4a3f44" d="M0 32 3.39 35.39 0 32.96ZM64 32 67.39 35.39 64 32.96ZM0 32 -3.39 35.39 -.96 32ZM64 32 60.61 35.39 63.04 32ZM0 32 -3.39 28.61 0 31.04ZM64 32 60.61 28.61 64 31.04ZM0 32 3.39 28.61 .96 32ZM64 32 67.39 28.61 64.96 32Z"/>
</g>
<g opacity=".75">
<path fill="#ff1f45" d="M0 30.9 1.1 32 0 33.1 -1.1 32ZM64 30.9 65.1 32 64 33.1 62.9 32Z"/>
</g>
<g opacity=".5">
<path fill="#e8d6c4" d="M-.6 1.4 -1.2 -1.07 -.41 -3.41 0 -5.1 -.02 -3.41 -.1 -1.07 0 1.4ZM-.6 65.4 -1.2 62.93 -.41 60.59 0 58.9 -.02 60.59 -.1 62.93 0 65.4ZM63.4 1.4 62.8 -1.07 63.59 -3.41 64 -5.1 63.98 -3.41 63.9 -1.07 64 1.4ZM63.4 65.4 62.8 62.93 63.59 60.59 64 58.9 63.98 60.59 63.9 62.93 64 65.4Z"/>
<path fill="#4a3f44" d="M0 1.4 -.1 -1.07 -.02 -3.41 0 -5.1 .36 -3.15 1.2 -.72 .6 1.4ZM0 65.4 -.1 62.93 -.02 60.59 0 58.9 .36 60.85 1.2 63.28 .6 65.4ZM64 1.4 63.9 -1.07 63.98 -3.41 64 -5.1 64.36 -3.15 65.2 -.72 64.6 1.4ZM64 65.4 63.9 62.93 63.98 60.59 64 58.9 64.36 60.85 65.2 63.28 64.6 65.4ZM.6 -1.4 1.2 1.07 .41 3.41 0 5.1 .02 3.41 .1 1.07 0 -1.4ZM.6 62.6 1.2 65.07 .41 67.41 0 69.1 .02 67.41 .1 65.07 0 62.6ZM64.6 -1.4 65.2 1.07 64.41 3.41 64 5.1 64.02 3.41 64.1 1.07 64 -1.4ZM64.6 62.6 65.2 65.07 64.41 67.41 64 69.1 64.02 67.41 64.1 65.07 64 62.6Z"/>
<path fill="#b9aeaa" d="M0 -1.4 .1 1.07 .02 3.41 0 5.1 -.36 3.15 -1.2 .72 -.6 -1.4ZM0 62.6 .1 65.07 .02 67.41 0 69.1 -.36 67.15 -1.2 64.72 -.6 62.6ZM64 -1.4 64.1 1.07 64.02 3.41 64 5.1 63.64 3.15 62.8 .72 63.4 -1.4ZM64 62.6 64.1 65.07 64.02 67.41 64 69.1 63.64 67.15 62.8 64.72 63.4 62.6Z"/>
</g>
<g opacity=".6">
<path fill="#ff1f45" d="M0 -.9 .9 0 0 .9 -.9 0ZM0 63.1 .9 64 0 64.9 -.9 64ZM64 -.9 64.9 0 64 .9 63.1 0ZM64 63.1 64.9 64 64 64.9 63.1 64Z"/>
</g>
</svg>
