<svg xmlns="http://www.w3.org/2000/svg" viewBox="0 0 240 240" width="240" height="240">
<title>Ruinous — crossed bone daggers</title>
<defs><linearGradient id="ruinous-crossed-blades-bl" x1="0" y1="0" x2="0" y2="1"><stop offset="0" stop-color="#fff7f0"/><stop offset="0.5" stop-color="#f4dccb"/><stop offset="1" stop-color="#e8d6c4"/></linearGradient><linearGradient id="ruinous-crossed-blades-bd" x1="0" y1="0" x2="0" y2="1"><stop offset="0" stop-color="#e8d6c4"/><stop offset="0.4" stop-color="#9a8a80"/><stop offset="1" stop-color="#9a8a80"/></linearGradient><linearGradient id="ruinous-crossed-blades-el" x1="0" y1="0" x2="0" y2="1"><stop offset="0" stop-color="#fff7f0"/><stop offset="1" stop-color="#f4dccb"/></linearGradient><linearGradient id="ruinous-crossed-blades-ed" x1="0" y1="0" x2="0" y2="1"><stop offset="0" stop-color="#9a8a80"/><stop offset="0.5" stop-color="#9a8a80"/><stop offset="1" stop-color="#e8d6c4"/></linearGradient><linearGradient id="ruinous-crossed-blades-tip" x1="0" y1="-60" x2="0" y2="202" gradientUnits="userSpaceOnUse"><stop offset="0" stop-color="#e0183a" stop-opacity="0.45"/><stop offset="0.18" stop-color="#b10a27" stop-opacity="0.22"/><stop offset="0.4" stop-color="#640817" stop-opacity="0"/><stop offset="1" stop-color="#640817" stop-opacity="0"/></linearGradient><linearGradient id="ruinous-crossed-blades-gl" x1="10" y1="170" x2="60" y2="214" gradientUnits="userSpaceOnUse"><stop offset="0" stop-color="#fff7f0"/><stop offset="0.5" stop-color="#f4dccb"/><stop offset="1" stop-color="#e8d6c4"/></linearGradient><linearGradient id="ruinous-crossed-blades-gd" x1="20" y1="180" x2="70" y2="220" gradientUnits="userSpaceOnUse"><stop offset="0" stop-color="#e8d6c4"/><stop offset="0.5" stop-color="#9a8a80"/><stop offset="1" stop-color="#9a8a80"/></linearGradient><linearGradient id="ruinous-crossed-blades-col" x1="46" y1="193" x2="74" y2="221" gradientUnits="userSpaceOnUse"><stop offset="0" stop-color="#fff7f0"/><stop offset="0.45" stop-color="#e8d6c4"/><stop offset="1" stop-color="#9a8a80"/></linearGradient><linearGradient id="ruinous-crossed-blades-gem" x1="55" y1="198" x2="65" y2="215" gradientUnits="userSpaceOnUse"><stop offset="0" stop-color="#ff3653"/><stop offset="0.4" stop-color="#e0183a"/><stop offset="1" stop-color="#34040c"/></linearGradient><linearGradient id="ruinous-crossed-blades-stem" x1="54" y1="0" x2="66" y2="0" gradientUnits="userSpaceOnUse"><stop offset="0" stop-color="#640817"/><stop offset="0.35" stop-color="#4f0712"/><stop offset="1" stop-color="#34040c"/></linearGradient><path id="ruinous-crossed-blades-th" d="M-2.8 0C-1.26-2.8 1.88-7.2 3-10C3.98-6.2 2.38-2.2 2.8 0C1.4 0.8-1.4 0.8-2.8 0Z"/><linearGradient id="ruinous-crossed-blades-thg" x1="0" y1="1" x2="0" y2="0"><stop offset="0" stop-color="#9a8a80"/><stop offset="0.6" stop-color="#e8d6c4"/><stop offset="1" stop-color="#fff7f0"/></linearGradient><linearGradient id="ruinous-crossed-blades-bud0" x1="0" y1="264" x2="0" y2="314" gradientUnits="userSpaceOnUse"><stop offset="0" stop-color="#34040c"/><stop offset="0.55" stop-color="#4f0712"/><stop offset="1" stop-color="#640817"/></linearGradient><linearGradient id="ruinous-crossed-blades-bud1" x1="44" y1="268" x2="64" y2="314" gradientUnits="userSpaceOnUse"><stop offset="0" stop-color="#e0183a"/><stop offset="0.5" stop-color="#b10a27"/><stop offset="1" stop-color="#640817"/></linearGradient><linearGradient id="ruinous-crossed-blades-bud2" x1="76" y1="270" x2="56" y2="314" gradientUnits="userSpaceOnUse"><stop offset="0" stop-color="#b10a27"/><stop offset="0.55" stop-color="#640817"/><stop offset="1" stop-color="#34040c"/></linearGradient><linearGradient id="ruinous-crossed-blades-bud3" x1="52" y1="276" x2="66" y2="314" gradientUnits="userSpaceOnUse"><stop offset="0" stop-color="#ff3653"/><stop offset="0.35" stop-color="#e0183a"/><stop offset="1" stop-color="#b10a27"/></linearGradient><linearGradient id="ruinous-crossed-blades-sep" x1="40" y1="264" x2="60" y2="296" gradientUnits="userSpaceOnUse"><stop offset="0" stop-color="#640817"/><stop offset="0.6" stop-color="#4f0712"/><stop offset="1" stop-color="#34040c"/></linearGradient><clipPath id="ruinous-crossed-blades-tc"><path clip-rule="evenodd" d="M-3000-3000H3000V3000H-3000ZM55.8-60a4.2 4.2 0 1 0 8.4 0a4.2 4.2 0 1 0-8.4 0ZM25.4 183.3a3.4 3.4 0 1 0 6.8 0a3.4 3.4 0 1 0-6.8 0ZM87.8 183.3a3.4 3.4 0 1 0 6.8 0a3.4 3.4 0 1 0-6.8 0ZM36.6 285.2a1.8 1.8 0 1 0 3.6 0a1.8 1.8 0 1 0-3.6 0ZM79.8 285.2a1.8 1.8 0 1 0 3.6 0a1.8 1.8 0 1 0-3.6 0ZM47.2 286.8a1.6 1.6 0 1 0 3.2 0a1.6 1.6 0 1 0-3.2 0ZM69.6 286.8a1.6 1.6 0 1 0 3.2 0a1.6 1.6 0 1 0-3.2 0Z"/></clipPath><g id="ruinous-crossed-blades-dagger"><path id="ruinous-crossed-blades-bo" d="M52.8 202C52.8 198.96 52.61 195.13 52.3 190.79C51.37 190.61 51.37 190.61 47.7 190.66L51.45 180.48C51.07 176.33 50.65 171.97 50.23 167.57C49.37 167 49.37 167 46.12 166.66L49.14 156.07C48.23 146.06 47.5 136.66 47.5 130C47.5 96 57.6-4 60-60C62.4-4 72.5 96 72.5 130C72.5 136.66 71.77 146.06 70.86 156.07L73.88 166.66C70.63 167 70.63 167 69.77 167.57C69.35 171.97 68.93 176.33 68.55 180.48L72.3 190.66C68.63 190.61 68.63 190.61 67.7 190.79C67.39 195.13 67.2 198.96 67.2 202Z" fill="#10070a" stroke="#10070a" stroke-width="2.4" stroke-linejoin="miter" clip-path="url(#ruinous-crossed-blades-tc)"/><path d="M52.8 202C52.8 198.96 52.61 195.13 52.3 190.79C51.37 190.61 51.37 190.61 47.7 190.66L51.45 180.48C51.07 176.33 50.65 171.97 50.23 167.57C49.37 167 49.37 167 46.12 166.66L49.14 156.07C48.23 146.06 47.5 136.66 47.5 130C47.5 96 57.6-4 60-60L60 204Z" fill="url(#ruinous-crossed-blades-bl)"/><path d="M60 204L60-60C62.4-4 72.5 96 72.5 130C72.5 136.66 71.77 146.06 70.86 156.07L73.88 166.66C70.63 167 70.63 167 69.77 167.57C69.35 171.97 68.93 176.33 68.55 180.48L72.3 190.66C68.63 190.61 68.63 190.61 67.7 190.79C67.39 195.13 67.2 198.96 67.2 202Z" fill="url(#ruinous-crossed-blades-bd)"/><path d="M47.5 130C47.5 96 57.6-4 60-60C58.61-4 52.75 96 52.75 130C52.75 148 55.82 186 55.82 202L52.8 202C52.8 186 47.5 148 47.5 130Z" fill="url(#ruinous-crossed-blades-el)"/><path d="M72.5 130C72.5 96 62.4-4 60-60C61.39-4 67.25 96 67.25 130C67.25 148 64.18 186 64.18 202L67.2 202C67.2 186 72.5 148 72.5 130Z" fill="url(#ruinous-crossed-blades-ed)"/><path d="M72.5 130C72.5 96 62.4-4 60-60C61.39-4 67.25 96 67.25 130C67.25 148 64.18 186 64.18 202L67.2 202C67.2 186 72.5 148 72.5 130Z" fill="url(#ruinous-crossed-blades-tip)"/><path d="M47.5 130C47.5 96 57.6-4 60-60C58.61-4 52.75 96 52.75 130C52.75 148 55.82 186 55.82 202L52.8 202C52.8 186 47.5 148 47.5 130Z" fill="url(#ruinous-crossed-blades-tip)" fill-opacity=".6"/><path d="M47.5 130C47.5 96 57.6-4 60-60C58.1-4 48.7 96 48.8 130Z" fill="#fff7f0"/><path d="M60 196V-56" stroke="#fff7f0" stroke-opacity=".55" stroke-width=".5"/><path d="M58.98 213.15C43.91 215.41 30.6 206.6 28.8 183.3C34.8 204.2 44.89 205.79 57.02 202.85C60.1 202.26 62.07 212.56 58.98 213.15Z" fill="#10070a" stroke="#10070a" stroke-width="2.4" stroke-linejoin="miter" clip-path="url(#ruinous-crossed-blades-tc)"/><path d="M61.02 213.15C76.09 215.41 89.4 206.6 91.2 183.3C85.2 204.2 75.11 205.79 62.98 202.85C59.9 202.26 57.93 212.56 61.02 213.15Z" fill="#10070a" stroke="#10070a" stroke-width="2.4" stroke-linejoin="miter" clip-path="url(#ruinous-crossed-blades-tc)"/><path d="M58.98 213.15C43.91 215.41 30.6 206.6 28.8 183.3C32.7 205.4 44.4 210.6 58 208C60.06 207.61 61.04 212.75 58.98 213.15Z" fill="url(#ruinous-crossed-blades-gl)"/><path d="M58 208C44.4 210.6 32.7 205.4 28.8 183.3C34.8 204.2 44.89 205.79 57.02 202.85C59.07 202.46 60.06 207.61 58 208Z" fill="url(#ruinous-crossed-blades-gd)"/><path d="M61.02 213.15C76.09 215.41 89.4 206.6 91.2 183.3C87.3 205.4 75.6 210.6 62 208C59.94 207.61 58.96 212.75 61.02 213.15Z" fill="url(#ruinous-crossed-blades-gd)"/><path d="M62 208C75.6 210.6 87.3 205.4 91.2 183.3C85.2 204.2 75.11 205.79 62.98 202.85C60.93 202.46 59.94 207.61 62 208Z" fill="url(#ruinous-crossed-blades-gl)"/><path d="M44 206C50 199 55 197 60 193C65 197 70 199 76 206C70 213 65 216 60 221C55 216 50 213 44 206Z" fill="url(#ruinous-crossed-blades-col)" stroke="#10070a" stroke-width="1.6" stroke-linejoin="miter"/><path d="M60 197.5L65.4 207L60 216.5L54.6 207Z" fill="url(#ruinous-crossed-blades-gem)" stroke="#34040c" stroke-width=".8" stroke-linejoin="miter"/><path d="M60 197.5L54.6 207L60 207Z" fill="#ff3653" fill-opacity=".55"/><path d="M60 216.5L65.4 207L60 207Z" fill="#070304" fill-opacity=".35"/><use href="#ruinous-crossed-blades-th" transform="translate(55 230) rotate(-72)" fill="url(#ruinous-crossed-blades-thg)" stroke="#10070a" stroke-width=".9"/><use href="#ruinous-crossed-blades-th" transform="translate(65 243) rotate(72)" fill="url(#ruinous-crossed-blades-thg)" stroke="#10070a" stroke-width=".9"/><use href="#ruinous-crossed-blades-th" transform="translate(55 256) rotate(-72)" fill="url(#ruinous-crossed-blades-thg)" stroke="#10070a" stroke-width=".9"/><path d="M54.8 218C54 236 55.4 252 54.4 270H65.6C64.6 252 66 236 65.2 218Z" fill="url(#ruinous-crossed-blades-stem)" stroke="#10070a" stroke-width="1.4"/><path d="M57.4 222C56.8 238 58 252 57.2 266" fill="none" stroke="#b10a27" stroke-opacity=".55" stroke-width=".8"/><g transform="translate(60 266) scale(0.8) translate(-60 -266)"><path d="M60 266C78 270 77 294 60 314C43 294 42 270 60 266Z" fill="url(#ruinous-crossed-blades-bud0)" stroke="#10070a" stroke-width="1.4" stroke-linejoin="miter"/><path d="M76 276C76 292 70 304 60.5 314C61 302 61 290 56 280C63 275 70 273 76 276Z" fill="url(#ruinous-crossed-blades-bud2)" stroke="#34040c" stroke-width="0.6" stroke-linejoin="miter"/><path d="M44 275C43 291 49 304 59.5 314C63 300 65 287 69.5 277C61 270 51 270 44 275Z" fill="url(#ruinous-crossed-blades-bud1)" stroke="#34040c" stroke-width="0.6" stroke-linejoin="miter"/><path d="M59.5 314C56 305 53.5 295 55 283.5C57.4 292 61 302 61.2 313Z" fill="url(#ruinous-crossed-blades-bud3)" stroke="#34040c" stroke-width="0.5" stroke-linejoin="miter"/><path d="M44 275C43 291 49 304 59.5 314C50.6 303 45.4 291 45.6 276Z" fill="#ff3653" fill-opacity=".55"/><path d="M69.5 277C65 287 63 300 59.5 314" fill="none" stroke="#ff3653" stroke-opacity=".75" stroke-width=".7"/><path d="M57.28 270.79C47.67 271.14 38.82 274.54 33 290C37.18 273.46 46.33 266.86 56.72 265.21C58.39 265.05 58.95 270.62 57.28 270.79Z" fill="url(#ruinous-crossed-blades-sep)" stroke="#10070a" stroke-width=".8" stroke-linejoin="miter" clip-path="url(#ruinous-crossed-blades-tc)"/><path d="M59.33 271C53.36 274.36 47.8 280.25 46 292C46.2 279.75 50.64 271.64 56.67 267C57.87 266.2 60.53 270.2 59.33 271Z" fill="url(#ruinous-crossed-blades-sep)" stroke="#10070a" stroke-width=".8" stroke-linejoin="miter" clip-path="url(#ruinous-crossed-blades-tc)"/><path d="M62.72 270.79C72.33 271.14 81.18 274.54 87 290C82.82 273.46 73.67 266.86 63.28 265.21C61.61 265.05 61.05 270.62 62.72 270.79Z" fill="url(#ruinous-crossed-blades-sep)" stroke="#10070a" stroke-width=".8" stroke-linejoin="miter" clip-path="url(#ruinous-crossed-blades-tc)"/><path d="M60.67 271C66.64 274.36 72.2 280.25 74 292C73.8 279.75 69.36 271.64 63.33 267C62.13 266.2 59.47 270.2 60.67 271Z" fill="url(#ruinous-crossed-blades-sep)" stroke="#10070a" stroke-width=".8" stroke-linejoin="miter" clip-path="url(#ruinous-crossed-blades-tc)"/><path d="M57.28 270.79C47.67 271.14 38.82 274.54 33 290C38 274 47 269 57 268C58.11 267.89 58.39 270.67 57.28 270.79Z" fill="#b10a27" fill-opacity=".55"/><path d="M59.33 271C53.36 274.36 47.8 280.25 46 292C47 280 52 273 58 269C58.8 268.47 60.13 270.46 59.33 271Z" fill="#b10a27" fill-opacity=".45"/><path d="M53.5 265C54 271 66 271 66.5 265Z" fill="#4f0712" stroke="#10070a" stroke-width="1"/></g></g><radialGradient id="ruinous-crossed-blades-r-sh" cx="0.5" cy="0.5" r="0.5"><stop offset="0.6" stop-color="#070304" stop-opacity="0.6"/><stop offset="1" stop-color="#070304" stop-opacity="0"/></radialGradient><clipPath id="ruinous-crossed-blades-r-sc"><path d="M0-8C-3.67-11.12-10.5-16.01-10.5-19.44C-10.5-22.64 2.35-25.26 3.4-34C4.45-25.26 10.5-22.64 10.5-19.44C10.5-16.01 3.68-11.12 0-8Z" transform="rotate(0)"/><path d="M0-8C-3.67-11.12-10.5-16.01-10.5-19.44C-10.5-22.64 2.35-25.26 3.4-34C4.45-25.26 10.5-22.64 10.5-19.44C10.5-16.01 3.68-11.12 0-8Z" transform="rotate(51.43)"/><path d="M0-8C-3.67-11.12-10.5-16.01-10.5-19.44C-10.5-22.64 2.35-25.26 3.4-34C4.45-25.26 10.5-22.64 10.5-19.44C10.5-16.01 3.68-11.12 0-8Z" transform="rotate(102.86)"/><path d="M0-8C-3.67-11.12-10.5-16.01-10.5-19.44C-10.5-22.64 2.35-25.26 3.4-34C4.45-25.26 10.5-22.64 10.5-19.44C10.5-16.01 3.68-11.12 0-8Z" transform="rotate(154.29)"/><path d="M0-8C-3.67-11.12-10.5-16.01-10.5-19.44C-10.5-22.64 2.35-25.26 3.4-34C4.45-25.26 10.5-22.64 10.5-19.44C10.5-16.01 3.68-11.12 0-8Z" transform="rotate(205.71)"/><path d="M0-8C-3.67-11.12-10.5-16.01-10.5-19.44C-10.5-22.64 2.35-25.26 3.4-34C4.45-25.26 10.5-22.64 10.5-19.44C10.5-16.01 3.68-11.12 0-8Z" transform="rotate(257.14)"/><path d="M0-8C-3.67-11.12-10.5-16.01-10.5-19.44C-10.5-22.64 2.35-25.26 3.4-34C4.45-25.26 10.5-22.64 10.5-19.44C10.5-16.01 3.68-11.12 0-8Z" transform="rotate(308.57)"/></clipPath><radialGradient id="ruinous-crossed-blades-r-g0" cx="0" cy="0" r="34" gradientUnits="userSpaceOnUse"><stop offset="0" stop-color="#34040c"/><stop offset="0.42" stop-color="#4f0712"/><stop offset="0.74" stop-color="#b10a27"/><stop offset="0.93" stop-color="#e0183a"/><stop offset="1" stop-color="#ff3653"/></radialGradient><path id="ruinous-crossed-blades-r-l0" d="M0-8C-3.67-11.12-10.5-16.01-10.5-19.44C-10.5-22.64 2.35-25.26 3.4-34C2.89-26.72 0-17.1 0-8Z"/><path id="ruinous-crossed-blades-r-r0" d="M0-8C0-17.1 2.89-26.72 3.4-34C4.45-25.26 10.5-22.64 10.5-19.44C10.5-16.01 3.68-11.12 0-8Z"/><path id="ruinous-crossed-blades-r-h0" d="M0-8C-3.67-11.12-10.5-16.01-10.5-19.44C-10.5-22.64 2.35-25.26 3.4-34C3.45-25.26-9.4-22.64-9.4-19.44C-9.4-16.01-2.57-11.12 0-8Z"/><radialGradient id="ruinous-crossed-blades-r-g1" cx="0" cy="0" r="26.5" gradientUnits="userSpaceOnUse"><stop offset="0" stop-color="#34040c"/><stop offset="0.42" stop-color="#4f0712"/><stop offset="0.74" stop-color="#b10a27"/><stop offset="0.93" stop-color="#e0183a"/><stop offset="1" stop-color="#ff3653"/></radialGradient><path id="ruinous-crossed-blades-r-l1" d="M0-6C-3.15-8.46-9-12.46-9-15.22C-9-17.71 2.1-19.73 3-26.5C2.55-20.86 0-13.17 0-6Z"/><path id="ruinous-crossed-blades-r-r1" d="M0-6C0-13.17 2.55-20.86 3-26.5C3.9-19.73 9-17.71 9-15.22C9-12.46 3.15-8.46 0-6Z"/><path id="ruinous-crossed-blades-r-h1" d="M0-6C-3.15-8.46-9-12.46-9-15.22C-9-17.71 2.1-19.73 3-26.5C3.2-19.73-7.9-17.71-7.9-15.22C-7.9-12.46-2.05-8.46 0-6Z"/><radialGradient id="ruinous-crossed-blades-r-g2" cx="0" cy="0" r="19.5" gradientUnits="userSpaceOnUse"><stop offset="0" stop-color="#34040c"/><stop offset="0.42" stop-color="#4f0712"/><stop offset="0.74" stop-color="#b10a27"/><stop offset="0.93" stop-color="#e0183a"/><stop offset="1" stop-color="#ff3653"/></radialGradient><path id="ruinous-crossed-blades-r-l2" d="M0-4C-2.59-5.86-7.4-8.99-7.4-11.13C-7.4-12.97 1.96-14.48 2.7-19.5C2.3-15.31 0-9.43 0-4Z"/><path id="ruinous-crossed-blades-r-r2" d="M0-4C0-9.43 2.3-15.31 2.7-19.5C3.44-14.48 7.4-12.97 7.4-11.13C7.4-8.99 2.59-5.86 0-4Z"/><path id="ruinous-crossed-blades-r-h2" d="M0-4C-2.59-5.86-7.4-8.99-7.4-11.13C-7.4-12.97 1.96-14.48 2.7-19.5C3.06-14.48-6.3-12.97-6.3-11.13C-6.3-8.99-1.49-5.86 0-4Z"/><radialGradient id="ruinous-crossed-blades-r-g3" cx="0" cy="0" r="12.5" gradientUnits="userSpaceOnUse"><stop offset="0" stop-color="#34040c"/><stop offset="0.42" stop-color="#4f0712"/><stop offset="0.74" stop-color="#b10a27"/><stop offset="0.93" stop-color="#e0183a"/><stop offset="1" stop-color="#ff3653"/></radialGradient><path id="ruinous-crossed-blades-r-l3" d="M0-1.5C-2.03-2.82-5.8-5.12-5.8-6.67C-5.8-7.95 1.92-9 2.5-12.5C2.13-9.59 0-5.35 0-1.5Z"/><path id="ruinous-crossed-blades-r-r3" d="M0-1.5C0-5.35 2.13-9.59 2.5-12.5C3.08-9 5.8-7.95 5.8-6.67C5.8-5.12 2.03-2.82 0-1.5Z"/><path id="ruinous-crossed-blades-r-h3" d="M0-1.5C-2.03-2.82-5.8-5.12-5.8-6.67C-5.8-7.95 1.92-9 2.5-12.5C3.02-9-4.7-7.95-4.7-6.67C-4.7-5.12-0.93-2.82 0-1.5Z"/><radialGradient id="ruinous-crossed-blades-r-g4" cx="0" cy="0" r="7" gradientUnits="userSpaceOnUse"><stop offset="0" stop-color="#34040c"/><stop offset="0.42" stop-color="#4f0712"/><stop offset="0.74" stop-color="#b10a27"/><stop offset="0.93" stop-color="#e0183a"/><stop offset="1" stop-color="#ff3653"/></radialGradient><path id="ruinous-crossed-blades-r-l4" d="M0-0.3C-1.4-1.1-4-2.64-4-3.65C-4-4.39 1.7-4.99 2.5-7C2.13-5.32 0-2.64 0-0.3Z"/><path id="ruinous-crossed-blades-r-r4" d="M0-0.3C0-2.64 2.13-5.32 2.5-7C3.3-4.99 4-4.39 4-3.65C4-2.64 1.4-1.1 0-0.3Z"/><path id="ruinous-crossed-blades-r-h4" d="M0-0.3C-1.4-1.1-4-2.64-4-3.65C-4-4.39 1.7-4.99 2.5-7C2.8-4.99-2.9-4.39-2.9-3.65C-2.9-2.64-0.3-1.1 0-0.3Z"/><radialGradient id="ruinous-crossed-blades-r-core" cx="0" cy="0" r="2.1" gradientUnits="userSpaceOnUse"><stop offset="0" stop-color="#ff3653"/><stop offset="0.35" stop-color="#e0183a"/><stop offset="1" stop-color="#34040c" stop-opacity="0"/></radialGradient><radialGradient id="ruinous-crossed-blades-osh" cx="0.5" cy="0.5" r="0.5"><stop offset="0.72" stop-color="#070304" stop-opacity="0.75"/><stop offset="1" stop-color="#070304" stop-opacity="0"/></radialGradient><clipPath id="ruinous-crossed-blades-bclip"><use href="#ruinous-crossed-blades-bo" transform="translate(120 118) rotate(45) scale(0.7) translate(-60 -120)"/><use href="#ruinous-crossed-blades-bo" transform="matrix(-1 0 0 1 240 0) translate(120 118) rotate(45) scale(0.7) translate(-60 -120)"/></clipPath><radialGradient id="ruinous-crossed-blades-spk"><stop offset="0" stop-color="#fff7f0" stop-opacity=".9"/><stop offset=".25" stop-color="#ff3653" stop-opacity=".45"/><stop offset="1" stop-color="#ff3653" stop-opacity="0"/></radialGradient></defs>
<use href="#ruinous-crossed-blades-dagger" transform="matrix(-1 0 0 1 240 0) translate(120 118) rotate(45) scale(0.7) translate(-60 -120)"/><use href="#ruinous-crossed-blades-dagger" transform="translate(120 118) rotate(45) scale(0.7) translate(-60 -120)"/><circle cx="120" cy="118" r="44" fill="url(#ruinous-crossed-blades-osh)" clip-path="url(#ruinous-crossed-blades-bclip)"/><g transform="translate(120 118)"><g fill="url(#ruinous-crossed-blades-r-g0)" stroke="#070304" stroke-opacity="0.45" stroke-width="0.45" stroke-linejoin="miter"><use href="#ruinous-crossed-blades-r-r0" transform="rotate(0)"/><use href="#ruinous-crossed-blades-r-r0" transform="rotate(51.43)"/><use href="#ruinous-crossed-blades-r-r0" transform="rotate(102.86)"/><use href="#ruinous-crossed-blades-r-r0" transform="rotate(154.29)"/><use href="#ruinous-crossed-blades-r-r0" transform="rotate(205.71)"/><use href="#ruinous-crossed-blades-r-r0" transform="rotate(257.14)"/><use href="#ruinous-crossed-blades-r-r0" transform="rotate(308.57)"/></g><use href="#ruinous-crossed-blades-r-r0" transform="rotate(0)" fill="#070304" fill-opacity="0.21"/><use href="#ruinous-crossed-blades-r-r0" transform="rotate(51.43)" fill="#070304" fill-opacity="0.3"/><use href="#ruinous-crossed-blades-r-r0" transform="rotate(102.86)" fill="#070304" fill-opacity="0.16"/><use href="#ruinous-crossed-blades-r-r0" transform="rotate(154.29)" fill="#ff3653" fill-opacity="0.06"/><use href="#ruinous-crossed-blades-r-r0" transform="rotate(205.71)" fill="#ff3653" fill-opacity="0.17"/><use href="#ruinous-crossed-blades-r-r0" transform="rotate(257.14)" fill="#ff3653" fill-opacity="0.15"/><g fill="url(#ruinous-crossed-blades-r-g0)" stroke="#070304" stroke-opacity="0.45" stroke-width="0.45" stroke-linejoin="miter"><use href="#ruinous-crossed-blades-r-l0" transform="rotate(0)"/><use href="#ruinous-crossed-blades-r-l0" transform="rotate(51.43)"/><use href="#ruinous-crossed-blades-r-l0" transform="rotate(102.86)"/><use href="#ruinous-crossed-blades-r-l0" transform="rotate(154.29)"/><use href="#ruinous-crossed-blades-r-l0" transform="rotate(205.71)"/><use href="#ruinous-crossed-blades-r-l0" transform="rotate(257.14)"/><use href="#ruinous-crossed-blades-r-l0" transform="rotate(308.57)"/></g><use href="#ruinous-crossed-blades-r-l0" transform="rotate(0)" fill="#ff3653" fill-opacity="0.13"/><use href="#ruinous-crossed-blades-r-l0" transform="rotate(51.43)" fill="#ff3653" fill-opacity="0.18"/><use href="#ruinous-crossed-blades-r-l0" transform="rotate(102.86)" fill="#ff3653" fill-opacity="0.1"/><use href="#ruinous-crossed-blades-r-l0" transform="rotate(154.29)" fill="#070304" fill-opacity="0.1"/><use href="#ruinous-crossed-blades-r-l0" transform="rotate(205.71)" fill="#070304" fill-opacity="0.28"/><use href="#ruinous-crossed-blades-r-l0" transform="rotate(257.14)" fill="#070304" fill-opacity="0.25"/><g fill="#ff3653"><use href="#ruinous-crossed-blades-r-h0" transform="rotate(0)" fill-opacity="0.74"/><use href="#ruinous-crossed-blades-r-h0" transform="rotate(51.43)" fill-opacity="0.9"/><use href="#ruinous-crossed-blades-r-h0" transform="rotate(102.86)" fill-opacity="0.64"/><use href="#ruinous-crossed-blades-r-h0" transform="rotate(154.29)" fill-opacity="0.35"/><use href="#ruinous-crossed-blades-r-h0" transform="rotate(205.71)" fill-opacity="0.35"/><use href="#ruinous-crossed-blades-r-h0" transform="rotate(257.14)" fill-opacity="0.35"/><use href="#ruinous-crossed-blades-r-h0" transform="rotate(308.57)" fill-opacity="0.35"/></g><circle r="30.21" fill="url(#ruinous-crossed-blades-r-sh)" clip-path="url(#ruinous-crossed-blades-r-sc)"/><g fill="url(#ruinous-crossed-blades-r-g1)" stroke="#070304" stroke-opacity="0.45" stroke-width="0.45" stroke-linejoin="miter"><use href="#ruinous-crossed-blades-r-r1" transform="rotate(26)"/><use href="#ruinous-crossed-blades-r-r1" transform="rotate(86)"/><use href="#ruinous-crossed-blades-r-r1" transform="rotate(146)"/><use href="#ruinous-crossed-blades-r-r1" transform="rotate(206)"/><use href="#ruinous-crossed-blades-r-r1" transform="rotate(266)"/><use href="#ruinous-crossed-blades-r-r1" transform="rotate(326)"/></g><use href="#ruinous-crossed-blades-r-r1" transform="rotate(26)" fill="#070304" fill-opacity="0.28"/><use href="#ruinous-crossed-blades-r-r1" transform="rotate(86)" fill="#070304" fill-opacity="0.23"/><use href="#ruinous-crossed-blades-r-r1" transform="rotate(146)" fill="#ff3653" fill-opacity="0.03"/><use href="#ruinous-crossed-blades-r-r1" transform="rotate(206)" fill="#ff3653" fill-opacity="0.17"/><use href="#ruinous-crossed-blades-r-r1" transform="rotate(266)" fill="#ff3653" fill-opacity="0.14"/><use href="#ruinous-crossed-blades-r-r1" transform="rotate(326)" fill="#070304" fill-opacity="0.06"/><g fill="url(#ruinous-crossed-blades-r-g1)" stroke="#070304" stroke-opacity="0.45" stroke-width="0.45" stroke-linejoin="miter"><use href="#ruinous-crossed-blades-r-l1" transform="rotate(26)"/><use href="#ruinous-crossed-blades-r-l1" transform="rotate(86)"/><use href="#ruinous-crossed-blades-r-l1" transform="rotate(146)"/><use href="#ruinous-crossed-blades-r-l1" transform="rotate(206)"/><use href="#ruinous-crossed-blades-r-l1" transform="rotate(266)"/><use href="#ruinous-crossed-blades-r-l1" transform="rotate(326)"/></g><use href="#ruinous-crossed-blades-r-l1" transform="rotate(26)" fill="#ff3653" fill-opacity="0.17"/><use href="#ruinous-crossed-blades-r-l1" transform="rotate(86)" fill="#ff3653" fill-opacity="0.14"/><use href="#ruinous-crossed-blades-r-l1" transform="rotate(146)" fill="#070304" fill-opacity="0.06"/><use href="#ruinous-crossed-blades-r-l1" transform="rotate(206)" fill="#070304" fill-opacity="0.28"/><use href="#ruinous-crossed-blades-r-l1" transform="rotate(266)" fill="#070304" fill-opacity="0.23"/><use href="#ruinous-crossed-blades-r-l1" transform="rotate(326)" fill="#ff3653" fill-opacity="0.03"/><g fill="#ff3653"><use href="#ruinous-crossed-blades-r-h1" transform="rotate(26)" fill-opacity="0.87"/><use href="#ruinous-crossed-blades-r-h1" transform="rotate(86)" fill-opacity="0.77"/><use href="#ruinous-crossed-blades-r-h1" transform="rotate(146)" fill-opacity="0.35"/><use href="#ruinous-crossed-blades-r-h1" transform="rotate(206)" fill-opacity="0.35"/><use href="#ruinous-crossed-blades-r-h1" transform="rotate(266)" fill-opacity="0.35"/><use href="#ruinous-crossed-blades-r-h1" transform="rotate(326)" fill-opacity="0.45"/></g><circle r="22.23" fill="url(#ruinous-crossed-blades-r-sh)" clip-path="url(#ruinous-crossed-blades-r-sc)"/><g fill="url(#ruinous-crossed-blades-r-g2)" stroke="#070304" stroke-opacity="0.45" stroke-width="0.45" stroke-linejoin="miter"><use href="#ruinous-crossed-blades-r-r2" transform="rotate(8)"/><use href="#ruinous-crossed-blades-r-r2" transform="rotate(80)"/><use href="#ruinous-crossed-blades-r-r2" transform="rotate(152)"/><use href="#ruinous-crossed-blades-r-r2" transform="rotate(224)"/><use href="#ruinous-crossed-blades-r-r2" transform="rotate(296)"/></g><use href="#ruinous-crossed-blades-r-r2" transform="rotate(8)" fill="#070304" fill-opacity="0.24"/><use href="#ruinous-crossed-blades-r-r2" transform="rotate(80)" fill="#070304" fill-opacity="0.25"/><use href="#ruinous-crossed-blades-r-r2" transform="rotate(152)" fill="#ff3653" fill-opacity="0.05"/><use href="#ruinous-crossed-blades-r-r2" transform="rotate(224)" fill="#ff3653" fill-opacity="0.18"/><use href="#ruinous-crossed-blades-r-r2" transform="rotate(296)" fill="#ff3653" fill-opacity="0.06"/><g fill="url(#ruinous-crossed-blades-r-g2)" stroke="#070304" stroke-opacity="0.45" stroke-width="0.45" stroke-linejoin="miter"><use href="#ruinous-crossed-blades-r-l2" transform="rotate(8)"/><use href="#ruinous-crossed-blades-r-l2" transform="rotate(80)"/><use href="#ruinous-crossed-blades-r-l2" transform="rotate(152)"/><use href="#ruinous-crossed-blades-r-l2" transform="rotate(224)"/><use href="#ruinous-crossed-blades-r-l2" transform="rotate(296)"/></g><use href="#ruinous-crossed-blades-r-l2" transform="rotate(8)" fill="#ff3653" fill-opacity="0.14"/><use href="#ruinous-crossed-blades-r-l2" transform="rotate(80)" fill="#ff3653" fill-opacity="0.15"/><use href="#ruinous-crossed-blades-r-l2" transform="rotate(152)" fill="#070304" fill-opacity="0.09"/><use href="#ruinous-crossed-blades-r-l2" transform="rotate(224)" fill="#070304" fill-opacity="0.3"/><use href="#ruinous-crossed-blades-r-l2" transform="rotate(296)" fill="#070304" fill-opacity="0.1"/><g fill="#ff3653"><use href="#ruinous-crossed-blades-r-h2" transform="rotate(8)" fill-opacity="0.79"/><use href="#ruinous-crossed-blades-r-h2" transform="rotate(80)" fill-opacity="0.8"/><use href="#ruinous-crossed-blades-r-h2" transform="rotate(152)" fill-opacity="0.35"/><use href="#ruinous-crossed-blades-r-h2" transform="rotate(224)" fill-opacity="0.35"/><use href="#ruinous-crossed-blades-r-h2" transform="rotate(296)" fill-opacity="0.35"/></g><circle r="14.25" fill="url(#ruinous-crossed-blades-r-sh)" clip-path="url(#ruinous-crossed-blades-r-sc)"/><g fill="url(#ruinous-crossed-blades-r-g3)" stroke="#070304" stroke-opacity="0.45" stroke-width="0.45" stroke-linejoin="miter"><use href="#ruinous-crossed-blades-r-r3" transform="rotate(50)"/><use href="#ruinous-crossed-blades-r-r3" transform="rotate(140)"/><use href="#ruinous-crossed-blades-r-r3" transform="rotate(230)"/><use href="#ruinous-crossed-blades-r-r3" transform="rotate(320)"/></g><use href="#ruinous-crossed-blades-r-r3" transform="rotate(50)" fill="#070304" fill-opacity="0.3"/><use href="#ruinous-crossed-blades-r-r3" transform="rotate(230)" fill="#ff3653" fill-opacity="0.18"/><g fill="url(#ruinous-crossed-blades-r-g3)" stroke="#070304" stroke-opacity="0.45" stroke-width="0.45" stroke-linejoin="miter"><use href="#ruinous-crossed-blades-r-l3" transform="rotate(50)"/><use href="#ruinous-crossed-blades-r-l3" transform="rotate(140)"/><use href="#ruinous-crossed-blades-r-l3" transform="rotate(230)"/><use href="#ruinous-crossed-blades-r-l3" transform="rotate(320)"/></g><use href="#ruinous-crossed-blades-r-l3" transform="rotate(50)" fill="#ff3653" fill-opacity="0.18"/><use href="#ruinous-crossed-blades-r-l3" transform="rotate(230)" fill="#070304" fill-opacity="0.3"/><g fill="#ff3653"><use href="#ruinous-crossed-blades-r-h3" transform="rotate(50)" fill-opacity="0.9"/><use href="#ruinous-crossed-blades-r-h3" transform="rotate(140)" fill-opacity="0.35"/><use href="#ruinous-crossed-blades-r-h3" transform="rotate(230)" fill-opacity="0.35"/><use href="#ruinous-crossed-blades-r-h3" transform="rotate(320)" fill-opacity="0.4"/></g><circle r="7.98" fill="url(#ruinous-crossed-blades-r-sh)" clip-path="url(#ruinous-crossed-blades-r-sc)"/><g fill="url(#ruinous-crossed-blades-r-g4)" stroke="#070304" stroke-opacity="0.45" stroke-width="0.45" stroke-linejoin="miter"><use href="#ruinous-crossed-blades-r-r4" transform="rotate(95)"/><use href="#ruinous-crossed-blades-r-r4" transform="rotate(215)"/><use href="#ruinous-crossed-blades-r-r4" transform="rotate(335)"/></g><use href="#ruinous-crossed-blades-r-r4" transform="rotate(95)" fill="#070304" fill-opacity="0.19"/><use href="#ruinous-crossed-blades-r-r4" transform="rotate(215)" fill="#ff3653" fill-opacity="0.18"/><use href="#ruinous-crossed-blades-r-r4" transform="rotate(335)" fill="#070304" fill-opacity="0.1"/><g fill="url(#ruinous-crossed-blades-r-g4)" stroke="#070304" stroke-opacity="0.45" stroke-width="0.45" stroke-linejoin="miter"><use href="#ruinous-crossed-blades-r-l4" transform="rotate(95)"/><use href="#ruinous-crossed-blades-r-l4" transform="rotate(215)"/><use href="#ruinous-crossed-blades-r-l4" transform="rotate(335)"/></g><use href="#ruinous-crossed-blades-r-l4" transform="rotate(95)" fill="#ff3653" fill-opacity="0.12"/><use href="#ruinous-crossed-blades-r-l4" transform="rotate(215)" fill="#070304" fill-opacity="0.3"/><use href="#ruinous-crossed-blades-r-l4" transform="rotate(335)" fill="#ff3653" fill-opacity="0.06"/><g fill="#ff3653"><use href="#ruinous-crossed-blades-r-h4" transform="rotate(95)" fill-opacity="0.7"/><use href="#ruinous-crossed-blades-r-h4" transform="rotate(215)" fill-opacity="0.35"/><use href="#ruinous-crossed-blades-r-h4" transform="rotate(335)" fill-opacity="0.54"/></g><circle r="2.1" fill="url(#ruinous-crossed-blades-r-core)"/></g><g><circle cx="41" cy="39" r="6.3" fill="url(#ruinous-crossed-blades-spk)"/><path d="M41 32Q41.34 38.66 45.34 39Q41.34 39.34 41 46Q40.66 39.34 36.66 39Q40.66 38.66 41 32Z" fill="#fff7f0"/></g>
</svg>
