<svg xmlns="http://www.w3.org/2000/svg" width="1600" height="1000" viewBox="0 0 1600 1000" role="img"><title>Solar sensor stake in garden soil</title><style>text{font-family:Inter, 'Segoe UI', system-ui, -apple-system, Roboto, Arial, sans-serif}.m{font-family:'JetBrains Mono', ui-monospace, 'Cascadia Code', Consolas, monospace}.h{stroke:#ffd1dc;stroke-opacity:.12;stroke-width:1.5}</style><defs>
<linearGradient id="bg" x1="0" y1="0" x2="0" y2="1"><stop offset="0" stop-color="#0a0204"/><stop offset=".62" stop-color="#140609"/><stop offset="1" stop-color="#0a0204"/></linearGradient>
<radialGradient id="haze" cx=".5" cy=".3" r=".6"><stop offset="0" stop-color="#5a0a16" stop-opacity=".7"/><stop offset="1" stop-color="#5a0a16" stop-opacity="0"/></radialGradient>
<radialGradient id="floor"><stop offset="0" stop-color="#ff7a1a" stop-opacity=".5"/><stop offset=".28" stop-color="#ff4a00" stop-opacity=".4"/><stop offset=".6" stop-color="#c8102e" stop-opacity=".18"/><stop offset="1" stop-color="#c8102e" stop-opacity="0"/></radialGradient>
<radialGradient id="vig" cx=".5" cy=".5" r=".75"><stop offset=".55" stop-color="#000" stop-opacity="0"/><stop offset="1" stop-color="#000" stop-opacity=".7"/></radialGradient>
<linearGradient id="horizon" x1="0" x2="1"><stop offset="0" stop-color="#ffd1dc" stop-opacity="0"/><stop offset=".5" stop-color="#ffd1dc" stop-opacity=".22"/><stop offset="1" stop-color="#ffd1dc" stop-opacity="0"/></linearGradient>
<filter id="glow" x="-20%" y="-20%" width="140%" height="140%"><feGaussianBlur stdDeviation="5"/></filter>
<filter id="soft" x="-50%" y="-50%" width="200%" height="200%"><feGaussianBlur stdDeviation="18"/></filter>
<linearGradient id="sky" x1="0" y1="0" x2="0" y2="1"><stop offset="0" stop-color="#0a0204"/><stop offset=".7" stop-color="#1a0306"/><stop offset="1" stop-color="#3d0610"/></linearGradient>
<linearGradient id="soil" x1="0" y1="0" x2="0" y2="1"><stop offset="0" stop-color="#1d0a10"/><stop offset="1" stop-color="#070203"/></linearGradient>
<radialGradient id="wet"><stop offset="0" stop-color="#3a6f9a" stop-opacity=".45"/><stop offset=".6" stop-color="#1b3a55" stop-opacity=".22"/><stop offset="1" stop-color="#1b3a55" stop-opacity="0"/></radialGradient>
<linearGradient id="panel" x1="0" y1="0" x2="1" y2="1"><stop offset="0" stop-color="#2a0f18"/><stop offset=".5" stop-color="#120508"/><stop offset="1" stop-color="#1d0a10"/></linearGradient>
<pattern id="cells" width="40" height="22" patternUnits="userSpaceOnUse"><path d="M40,0V22M0,22H40" stroke="#ff3b6b" stroke-opacity=".32" stroke-width="2"/></pattern>
<linearGradient id="pole" x1="0" x2="1"><stop offset="0" stop-color="#1d0a10"/><stop offset=".7" stop-color="#3d0610"/><stop offset="1" stop-color="#ff3b6b"/></linearGradient></defs><rect width="1600" height="1000" fill="url(#sky)"/><rect width="1600" height="1000" fill="url(#haze)"/><ellipse cx="800" cy="600" rx="760" ry="190" fill="url(#floor)"/><path d="M0,560C180,520 300,548 470,530S760,500 900,528 1250,500 1400,520 1600,540 1600,540V600H0Z" fill="#12050a"/><rect y="598" width="1600" height="402" fill="url(#soil)"/><path d="M0,599H1600" stroke="#ff3b6b" stroke-opacity=".35" stroke-width="2"/><g><circle cx="681" cy="628.4" r="2.5" fill="#ffd1dc" opacity="0.1"/><circle cx="185.2" cy="932.5" r="2.9" fill="#ffd1dc" opacity="0.1"/><circle cx="89.5" cy="682.1" r="3" fill="#ffd1dc" opacity="0.1"/><circle cx="793.5" cy="879.5" r="1.8" fill="#ffd1dc" opacity="0.1"/><circle cx="208.5" cy="641" r="1.8" fill="#ffd1dc" opacity="0.1"/><circle cx="1562.5" cy="634.3" r="1.5" fill="#ffd1dc" opacity="0.1"/><circle cx="217.8" cy="692.6" r="1.3" fill="#ffd1dc" opacity="0.1"/><circle cx="1305" cy="814.2" r="1.9" fill="#ffd1dc" opacity="0.1"/><circle cx="486" cy="712.5" r="2.2" fill="#ffd1dc" opacity="0.1"/><circle cx="1135.6" cy="784.1" r="2.3" fill="#ffd1dc" opacity="0.1"/><circle cx="639.5" cy="657.2" r="1.5" fill="#ffd1dc" opacity="0.1"/><circle cx="11" cy="973.1" r="1.1" fill="#ffd1dc" opacity="0.1"/><circle cx="782.3" cy="928.6" r="1.6" fill="#ffd1dc" opacity="0.1"/><circle cx="437.2" cy="864.4" r="2.8" fill="#ffd1dc" opacity="0.1"/><circle cx="622.6" cy="832" r="1.5" fill="#ffd1dc" opacity="0.1"/><circle cx="599.3" cy="771.4" r="1.6" fill="#ffd1dc" opacity="0.1"/><circle cx="1010.1" cy="823.6" r="2.7" fill="#ffd1dc" opacity="0.1"/><circle cx="833.8" cy="813.2" r="1.7" fill="#ffd1dc" opacity="0.1"/><circle cx="974.5" cy="846.9" r="1.6" fill="#ffd1dc" opacity="0.1"/><circle cx="119.6" cy="657.3" r="0.9" fill="#ffd1dc" opacity="0.1"/><circle cx="495.4" cy="781.2" r="1.4" fill="#ffd1dc" opacity="0.1"/><circle cx="991.3" cy="633.7" r="1.9" fill="#ffd1dc" opacity="0.1"/><circle cx="1083.3" cy="823.4" r="2.2" fill="#ffd1dc" opacity="0.1"/><circle cx="1291.9" cy="816.2" r="3.2" fill="#ffd1dc" opacity="0.1"/><circle cx="15.7" cy="919.6" r="1.2" fill="#ffd1dc" opacity="0.1"/><circle cx="651.9" cy="616.6" r="2.8" fill="#ffd1dc" opacity="0.1"/><circle cx="134.2" cy="868.4" r="1.7" fill="#ffd1dc" opacity="0.1"/><circle cx="344.1" cy="649" r="1.4" fill="#ffd1dc" opacity="0.1"/><circle cx="1287.2" cy="673.4" r="2" fill="#ffd1dc" opacity="0.1"/><circle cx="820.2" cy="929.4" r="2.2" fill="#ffd1dc" opacity="0.1"/></g><ellipse cx="800" cy="780" rx="230" ry="130" fill="url(#wet)"/><path d="M520,600C520.2,604.3 520.1,620.4 521.5,632C522.9,643.5 529.6,675.1 530.6,686.4C531.5,697.8 527.2,706.5 528.5,716.8C529.9,727.1 537.9,750.7 540.6,763.4C543.4,776.2 548.6,798.8 549.1,812.6C549.5,826.4 544.6,859.5 543.9,866.7M530.6,686.4q30,16.5 60.6,52.5M528.5,716.8q30,23 61.3,53.9M540.6,763.4q30,29.9 49.6,39.1M549.1,812.6q30,27.8 55.5,42.9M610,600C610,604.5 610.5,624.8 609.9,633.4C609.3,642.1 606.2,655.6 605.5,664.8C604.8,674.1 604.9,692.9 604.4,702.6C603.9,712.2 603.6,726.3 602,737C600.4,747.7 593.7,771.1 592.2,783.1C590.7,795.1 591.1,821 590.9,826.9M605.5,664.8q-30,16.9 -49.8,42M604.4,702.6q-30,25.1 -46.8,30.5M602,737q-30,21.5 -60.4,34.5M592.2,783.1q-30,12 -68.3,41.2M1050,600C1049.7,605.3 1047.5,627.6 1047.8,639.8C1048.2,652.1 1052.5,678.5 1052.6,692C1052.6,705.6 1048.4,729.9 1048.4,741.3C1048.4,752.6 1051.3,768.1 1052.5,777.1C1053.7,786.1 1054.8,800.4 1057.3,808.7C1059.8,816.9 1069.1,834.7 1071,838.7M1052.6,692q30,10.6 63.8,45.6M1048.4,741.3q30,19 56.8,35.6M1052.5,777.1q30,10.9 61.4,46.9M1057.3,808.7q30,29 70.1,37.6M1150,600C1148.7,606.7 1141.9,636.5 1140.4,650.5C1138.9,664.6 1139,691 1138.9,705.3C1138.8,719.7 1139.2,744 1139.6,758.1C1140,772.2 1141,799.2 1141.9,811.2C1142.8,823.2 1148.1,838.1 1146.1,847.8C1144.1,857.5 1129.5,879.2 1127,884M1138.9,705.3q-30,19.8 -52.1,45.4M1139.6,758.1q-30,17.9 -69.9,33.7M1141.9,811.2q-30,29 -61.3,57M1146.1,847.8q-30,29.4 -44.3,44.1M1270,600C1271,604.7 1274.2,625.8 1277.4,635.4C1280.5,645.1 1292.1,662.1 1293.6,672.2C1295.2,682.4 1288.4,699.5 1289,711.6C1289.7,723.8 1296.3,751.6 1298.5,763.2C1300.7,774.9 1304.8,790 1305.8,798.9C1306.8,807.8 1306.2,825.8 1306.3,830M1293.6,672.2q30,26.4 44.3,44.8M1289,711.6q30,17.4 47.3,51.3M1298.5,763.2q30,14.8 53.4,48.9M1305.8,798.9q30,18.4 70.5,40.9M330,600C329.7,606 328.4,633.7 327.5,645.2C326.7,656.8 322.9,677 323.9,686.9C324.9,696.7 332.7,707.5 334.9,719.1C337.1,730.7 340,762.1 340.7,774.2C341.3,786.2 338.3,797.7 339.7,809.5C341,821.4 349.4,855.6 350.9,862.7M323.9,686.9q30,19.6 75.5,31.1M334.9,719.1q30,12.9 44.3,32.4M340.7,774.2q30,19.7 45.7,49.5M339.7,809.5q30,23.7 70.6,44.9" fill="none" stroke="#ff7a95" stroke-opacity=".28" stroke-width="2.5" stroke-linecap="round"/><g transform="translate(520 600) scale(1)"><path d="M0,0V-40" stroke="#2a0f18" stroke-width="6"/><path d="M0,-40C-10,-80 -60,-84 -74,-60C-50,-46 -20,-44 0,-40ZM0,-24C12,-68 58,-70 70,-46C48,-32 20,-30 0,-24Z" fill="#1d0a10" stroke="#ff3b6b" stroke-opacity=".6" stroke-width="2.5"/></g><g transform="translate(610 600) scale(0.7)"><path d="M0,0V-26" stroke="#2a0f18" stroke-width="6"/><path d="M0,-26C-10,-66 -60,-70 -74,-46C-50,-32 -20,-30 0,-26ZM0,-10C12,-54 58,-56 70,-32C48,-18 20,-16 0,-10Z" fill="#1d0a10" stroke="#ff3b6b" stroke-opacity=".6" stroke-width="2.5"/></g><g transform="translate(1050 600) scale(1.1)"><path d="M0,0V-50" stroke="#2a0f18" stroke-width="6"/><path d="M0,-50C-10,-90 -60,-94 -74,-70C-50,-56 -20,-54 0,-50ZM0,-34C12,-78 58,-80 70,-56C48,-42 20,-40 0,-34Z" fill="#1d0a10" stroke="#ff3b6b" stroke-opacity=".6" stroke-width="2.5"/></g><g transform="translate(1150 600) scale(0.8)"><path d="M0,0V-30" stroke="#2a0f18" stroke-width="6"/><path d="M0,-30C-10,-70 -60,-74 -74,-50C-50,-36 -20,-34 0,-30ZM0,-14C12,-58 58,-60 70,-36C48,-22 20,-20 0,-14Z" fill="#1d0a10" stroke="#ff3b6b" stroke-opacity=".6" stroke-width="2.5"/></g><g transform="translate(1270 600) scale(0.9)"><path d="M0,0V-44" stroke="#2a0f18" stroke-width="6"/><path d="M0,-44C-10,-84 -60,-88 -74,-64C-50,-50 -20,-48 0,-44ZM0,-28C12,-72 58,-74 70,-50C48,-36 20,-34 0,-28Z" fill="#1d0a10" stroke="#ff3b6b" stroke-opacity=".6" stroke-width="2.5"/></g><g transform="translate(330 600) scale(0.8)"><path d="M0,0V-30" stroke="#2a0f18" stroke-width="6"/><path d="M0,-30C-10,-70 -60,-74 -74,-50C-50,-36 -20,-34 0,-30ZM0,-14C12,-58 58,-60 70,-36C48,-22 20,-20 0,-14Z" fill="#1d0a10" stroke="#ff3b6b" stroke-opacity=".6" stroke-width="2.5"/></g><path d="M776,600V830L800,880L824,830V600Z" fill="#6b0a18" stroke="#ff3b6b" stroke-opacity=".7" stroke-width="2.5"/><path d="M788,620V820M812,620V820M788,700H812" stroke="#ffb000" stroke-opacity=".7" stroke-width="3" fill="none"/><rect x="792" y="300" width="16" height="302" fill="url(#pole)"/><rect x="726" y="404" width="148" height="128" rx="16" fill="#1d0a10" stroke="#ffd1dc" stroke-opacity=".3" stroke-width="2.5"/><rect x="726" y="404" width="148" height="26" rx="12" fill="#2a0f18"/><path d="M748,452h56M748,466h56M748,480h56" stroke="#ffd1dc" stroke-opacity=".16" stroke-width="4" stroke-linecap="round"/><circle cx="850" cy="460" r="16" fill="#ffb000" opacity=".3" filter="url(#glow)"/><circle cx="850" cy="460" r="6" fill="#ffb000"/><text x="746" y="516" class="m" font-size="18" font-weight="600" fill="#b9a9ae" letter-spacing="1">RS-04</text><path d="M862,406L884,304" stroke="#ffd1dc" stroke-opacity=".6" stroke-width="5" stroke-linecap="round"/><circle cx="885" cy="300" r="7" fill="#ff3b6b"/><g fill="none" stroke="#ff3b6b" stroke-linecap="round" stroke-width="4"><path d="M912,272a40,40 0 0 1 0,56" opacity=".8"/><path d="M936,250a72,72 0 0 1 0,100" opacity=".5"/><path d="M960,228a104,104 0 0 1 0,144" opacity=".25"/></g><path d="M800,300L770,262" stroke="#3d0610" stroke-width="12"/><g transform="translate(760 250) rotate(-10) skewX(-24)"><rect x="-170" y="-48" width="340" height="96" rx="6" fill="url(#panel)"/><rect x="-170" y="-48" width="340" height="96" rx="6" fill="url(#cells)"/><rect x="-170" y="-48" width="340" height="96" rx="6" fill="none" stroke="#ffd1dc" stroke-opacity=".5" stroke-width="3"/><path d="M-160,-40L40,-40L-40,40H-160Z" fill="#fff" opacity=".05"/></g><path d="M590,300C700,276 860,236 948,212" stroke="#ff2d55" stroke-width="5" opacity=".6" filter="url(#glow)" fill="none"/><circle cx="905" cy="222" r="10" fill="#fff1c2" opacity=".8" filter="url(#glow)"/><path d="M874,470H1040" stroke="#ffd1dc" stroke-opacity=".3" stroke-width="2" stroke-dasharray="4 6"/><rect x="1040" y="398" width="290" height="140" rx="18" fill="#0a0204" fill-opacity=".72" stroke="#ffd1dc" stroke-opacity=".2" stroke-width="2"/><text x="1066" y="438" class="m" font-size="16" font-weight="700" fill="#ff7a95" letter-spacing="1.5">SOIL MOISTURE · BED 3</text><text x="1064" y="498" font-size="56" font-weight="300" fill="#ffd98a">27%</text><text x="1180" y="488" font-size="18" fill="#b9a9ae">reported</text><text x="1180" y="512" font-size="18" fill="#b9a9ae">2 min ago</text><g><circle cx="1048" cy="765.5" r="3.2" fill="#ffb000" opacity="0.3"/><circle cx="680.1" cy="363.4" r="1" fill="#ff4a00" opacity="0.8"/><circle cx="1250" cy="624.1" r="1.8" fill="#ff3b6b" opacity="0.7"/><circle cx="904.7" cy="425.9" r="3.1" fill="#ffb000" opacity="0.3"/><circle cx="1108.1" cy="703.5" r="3.5" fill="#ff4a00" opacity="0.4"/><circle cx="1346.8" cy="763.2" r="3.3" fill="#ff3b6b" opacity="0.7"/><circle cx="1458.1" cy="617.1" r="2.8" fill="#ffb000" opacity="0.3"/><circle cx="329.1" cy="227.2" r="3.1" fill="#ff4a00" opacity="0.4"/><circle cx="479.6" cy="632.4" r="2.9" fill="#ff3b6b" opacity="0.8"/><circle cx="1258.7" cy="763.9" r="3.6" fill="#ffb000" opacity="0.4"/><circle cx="632.4" cy="386.7" r="1" fill="#ff4a00" opacity="0.8"/><circle cx="91.6" cy="413.2" r="0.9" fill="#ff3b6b" opacity="0.5"/><circle cx="1357.4" cy="878.7" r="2.9" fill="#ffb000" opacity="0.7"/><circle cx="854.9" cy="396.3" r="1.3" fill="#ff4a00" opacity="0.8"/><circle cx="1124" cy="869.4" r="3.4" fill="#ff3b6b" opacity="0.4"/><circle cx="1231.9" cy="414.6" r="3.6" fill="#ffb000" opacity="0.7"/><circle cx="1406.4" cy="467.1" r="2" fill="#ff4a00" opacity="0.8"/><circle cx="402.6" cy="717.6" r="2" fill="#ff3b6b" opacity="0.7"/><circle cx="237.1" cy="839.9" r="1.3" fill="#ffb000" opacity="0.8"/><circle cx="847.8" cy="846.1" r="2.3" fill="#ff4a00" opacity="0.5"/><circle cx="773.2" cy="351.8" r="1.2" fill="#ff3b6b" opacity="0.6"/><circle cx="748.8" cy="503.1" r="2.4" fill="#ffb000" opacity="0.6"/><circle cx="342.6" cy="519.4" r="3.6" fill="#ff4a00" opacity="0.5"/><circle cx="733.4" cy="737" r="2.7" fill="#ff3b6b" opacity="0.3"/><circle cx="551.1" cy="228.3" r="3.7" fill="#ffb000" opacity="0.5"/><circle cx="122.5" cy="352.7" r="2.8" fill="#ff4a00" opacity="0.5"/></g><rect width="1600" height="1000" fill="url(#vig)"/></svg>
