<svg xmlns="http://www.w3.org/2000/svg" width="1600" height="900" viewBox="0 0 1600 900" role="img"><title>Terminal voltage versus current with linear fit</title><style>text{font-family:Inter, 'Segoe UI', system-ui, -apple-system, Roboto, Arial, sans-serif}.m{font-family:'JetBrains Mono', ui-monospace, 'Cascadia Code', Consolas, monospace}.h{stroke:#ffd1dc;stroke-opacity:.12;stroke-width:1.5}</style><defs>
<radialGradient id="pt" cx=".38" cy=".35" r=".7"><stop offset="0" stop-color="#fff1c2"/><stop offset=".45" stop-color="#ffb000"/><stop offset="1" stop-color="#ff4a00"/></radialGradient>
<radialGradient id="halo"><stop offset="0" stop-color="#ff4a00" stop-opacity=".35"/><stop offset="1" stop-color="#ff4a00" stop-opacity="0"/></radialGradient>
<radialGradient id="bgGlow" cx=".85" cy="1" r=".9"><stop offset="0" stop-color="#6b0a18" stop-opacity=".55"/><stop offset=".6" stop-color="#3d0610" stop-opacity=".18"/><stop offset="1" stop-color="#140609" stop-opacity="0"/></radialGradient>
<radialGradient id="bgGlow2" cx=".05" cy="0" r=".7"><stop offset="0" stop-color="#1b3a55" stop-opacity=".35"/><stop offset="1" stop-color="#1b3a55" stop-opacity="0"/></radialGradient>
<circle id="dot" r="8" fill="url(#pt)" stroke="#0a0204" stroke-width="1.5"/>
<linearGradient id="strip" x1="0" x2="1"><stop offset="0" stop-color="#1b3a55"/><stop offset=".45" stop-color="#2e2a55"/><stop offset="1" stop-color="#4a1f4f"/></linearGradient></defs><rect width="1600" height="900" fill="#140609"/><rect width="1600" height="900" fill="url(#bgGlow)"/><rect width="1600" height="900" fill="url(#bgGlow2)"/><rect width="1600" height="8" fill="url(#strip)"/><text x="200" y="78" class="m" font-size="22" font-weight="700" fill="#ff7a95" letter-spacing="3">FIG. 1</text><text x="315" y="78" font-size="26" font-weight="600" fill="#fbf3f5">Terminal voltage vs current</text><g stroke="#ffd1dc" stroke-opacity=".07" stroke-width="1.5"><path d="M200,150V760"/><path d="M441.8,150V760"/><path d="M683.6,150V760"/><path d="M925.5,150V760"/><path d="M1167.3,150V760"/><path d="M1409.1,150V760"/><path d="M200,760H1530"/><path d="M200,666.2H1530"/><path d="M200,572.3H1530"/><path d="M200,478.5H1530"/><path d="M200,384.6H1530"/><path d="M200,290.8H1530"/><path d="M200,196.9H1530"/></g><g stroke="#ffd1dc" stroke-opacity=".62" stroke-width="2" fill="none"><path d="M200,140V760H1540"/><path d="M200,760v12"/><path d="M441.8,760v12"/><path d="M683.6,760v12"/><path d="M925.5,760v12"/><path d="M1167.3,760v12"/><path d="M1409.1,760v12"/><path d="M200,760h-12"/><path d="M200,666.2h-12"/><path d="M200,572.3h-12"/><path d="M200,478.5h-12"/><path d="M200,384.6h-12"/><path d="M200,290.8h-12"/><path d="M200,196.9h-12"/></g><g font-family="'JetBrains Mono', ui-monospace, 'Cascadia Code', Consolas, monospace" font-size="24" fill="#e8dade" fill-opacity=".82"><text x="200" y="804" text-anchor="middle">0.0</text><text x="441.8" y="804" text-anchor="middle">0.2</text><text x="683.6" y="804" text-anchor="middle">0.4</text><text x="925.5" y="804" text-anchor="middle">0.6</text><text x="1167.3" y="804" text-anchor="middle">0.8</text><text x="1409.1" y="804" text-anchor="middle">1.0</text><text x="178" y="768" text-anchor="end">8.9</text><text x="178" y="674.2" text-anchor="end">9.0</text><text x="178" y="580.3" text-anchor="end">9.1</text><text x="178" y="486.5" text-anchor="end">9.2</text><text x="178" y="392.6" text-anchor="end">9.3</text><text x="178" y="298.8" text-anchor="end">9.4</text><text x="178" y="204.9" text-anchor="end">9.5</text></g><text x="865" y="860" font-size="28" font-weight="600" fill="#fbf3f5" text-anchor="middle">Current I (A)</text><text transform="translate(72 455) rotate(-90)" text-anchor="middle" font-family="Inter, 'Segoe UI', system-ui, -apple-system, Roboto, Arial, sans-serif" font-size="28" font-weight="600" fill="#fbf3f5">Terminal voltage V (V)</text><path d="M200,235.8L1481.6,650.6" fill="none" stroke="#ff2d55" stroke-opacity=".16" stroke-width="16" stroke-linecap="round"/><path d="M200,235.8L1481.6,650.6" fill="none" stroke="#ff3b6b" stroke-width="4" stroke-linecap="round"/><circle cx="200" cy="235.8" r="10" fill="none" stroke="#ff3b6b" stroke-width="4"/><text x="226" y="215.8" class="m" font-size="24" font-weight="600" fill="#ff3b6b">ε = 9.46 V</text><circle cx="320.9" cy="275.8" r="26.4" fill="url(#halo)"/><circle cx="320.9" cy="275.8" r="11" fill="url(#pt)" stroke="#0a0204" stroke-width="2"/><circle cx="502.3" cy="331.1" r="26.4" fill="url(#halo)"/><circle cx="502.3" cy="331.1" r="11" fill="url(#pt)" stroke="#0a0204" stroke-width="2"/><circle cx="683.6" cy="394.9" r="26.4" fill="url(#halo)"/><circle cx="683.6" cy="394.9" r="11" fill="url(#pt)" stroke="#0a0204" stroke-width="2"/><circle cx="865" cy="448.4" r="26.4" fill="url(#halo)"/><circle cx="865" cy="448.4" r="11" fill="url(#pt)" stroke="#0a0204" stroke-width="2"/><circle cx="1046.4" cy="513.2" r="26.4" fill="url(#halo)"/><circle cx="1046.4" cy="513.2" r="11" fill="url(#pt)" stroke="#0a0204" stroke-width="2"/><circle cx="1227.7" cy="566.7" r="26.4" fill="url(#halo)"/><circle cx="1227.7" cy="566.7" r="11" fill="url(#pt)" stroke="#0a0204" stroke-width="2"/><circle cx="1409.1" cy="675.5" r="11" fill="#140609" stroke="#ffb000" stroke-width="4"/><path d="M1409.1,657.5V639.1" stroke="#ffd98a" stroke-width="2" stroke-dasharray="4 6"/><text x="1389.1" y="725.5" class="m" font-size="22" fill="#ffd98a" text-anchor="end">excluded: −0.05 V sag (heating)</text><rect x="990" y="190" width="500" height="144" rx="14" fill="#0a0204" fill-opacity=".78" stroke="#ffd1dc" stroke-opacity=".18" stroke-width="1.5"/><rect x="990" y="206" width="4" height="112" rx="2" fill="#ff3b6b"/><text x="1016" y="232.6" class="m" font-size="24" font-weight="600" fill="#ffd98a">V = 9.46 − 0.42 I</text><text x="1016" y="270.6" class="m" font-size="24" fill="#e8dade">r = 0.42 ± 0.03 Ω</text><text x="1016" y="308.6" class="m" font-size="24" fill="#e8dade">R² = 0.999  ·  fit 0.10–0.85 A</text><circle cx="264" cy="640" r="9" fill="url(#pt)"/><text x="294" y="648" font-size="22" fill="#e8dade">Measured (in fit)</text><circle cx="264" cy="680" r="9" fill="none" stroke="#ffb000" stroke-width="3"/><text x="294" y="688" font-size="22" fill="#e8dade">Excluded from fit</text></svg>
